<svg width="20" height="20" viewBox="0 0 20 20" fill="none" xmlns="http://www.w3.org/2000/svg">
<path d="M11.4417 17.4998C11.2952 17.7524 11.0849 17.962 10.8319 18.1078C10.5788 18.2535 10.292 18.3302 10 18.3302C9.70802 18.3302 9.42116 18.2535 9.16814 18.1078C8.91513 17.962 8.70484 17.7524 8.55833 17.4998M15 6.99984C15 5.58567 14.4733 4.229 13.5358 3.229C12.5983 2.229 11.325 1.6665 10 1.6665C8.675 1.6665 7.4025 2.22817 6.46417 3.229C5.52667 4.229 5 5.58567 5 6.99984C5 13.2223 2.5 14.9998 2.5 14.9998H17.5C17.5 14.9998 15 13.2223 15 6.99984Z" stroke="black" stroke-width="1.5" stroke-linecap="round" stroke-linejoin="round"/>
</svg>
