<svg width="17" height="16" viewBox="0 0 17 16" fill="none" xmlns="http://www.w3.org/2000/svg">
<path d="M4.52539 11.5H11.0254V15.5H4.52539V11.5Z" fill="#E8E8E8"/>
<path d="M6.02539 12.5H9.52539V13.25H6.02539V12.5ZM6.02539 14.5H9.52539V15.25H6.02539V14.5Z" fill="#62727A"/>
<path d="M6.02539 13.75H9.52539V14.5H6.02539V13.75Z" fill="white"/>
<path d="M9.77539 13.5H10.7754V14H9.77539V13.5Z" fill="#62727A"/>
<path d="M9.77539 13H10.7754V13.5H9.77539V13Z" fill="white"/>
<path d="M9.77539 12.25H10.7754V12.75H9.77539V12.25Z" fill="#62727A"/>
<path d="M9.77539 11.75H10.7754V12.25H9.77539V11.75Z" fill="white"/>
<path d="M9.77539 14.75H10.7754V15.25H9.77539V14.75Z" fill="#62727A"/>
<path d="M9.77539 14.25H10.7754V14.75H9.77539V14.25Z" fill="white"/>
<path d="M4.77539 13.5H5.77539V14H4.77539V13.5Z" fill="#62727A"/>
<path d="M4.77539 13H5.77539V13.5H4.77539V13Z" fill="white"/>
<path d="M4.77539 12.25H5.77539V12.75H4.77539V12.25Z" fill="#62727A"/>
<path d="M4.77539 11.75H5.77539V12.25H4.77539V11.75Z" fill="white"/>
<path d="M4.77539 14.75H5.77539V15.25H4.77539V14.75Z" fill="#62727A"/>
<path d="M4.77539 14.25H5.77539V14.75H4.77539V14.25Z" fill="white"/>
<path d="M4.52539 0.5H11.0254V4.5H4.52539V0.5Z" fill="#E8E8E8"/>
<path d="M6.02539 1.5H9.52539V2.25H6.02539V1.5Z" fill="#62727A"/>
<path d="M6.02539 0.75H9.52539V1.5H6.02539V0.75ZM6.02539 2.75H9.52539V3.5H6.02539V2.75Z" fill="white"/>
<path d="M9.77539 2.5H10.7754V3H9.77539V2.5Z" fill="#62727A"/>
<path d="M9.77539 2H10.7754V2.5H9.77539V2Z" fill="white"/>
<path d="M9.77539 1.25H10.7754V1.75H9.77539V1.25Z" fill="#62727A"/>
<path d="M9.77539 0.75H10.7754V1.25H9.77539V0.75Z" fill="white"/>
<path d="M9.77539 3.75H10.7754V4.25H9.77539V3.75Z" fill="#62727A"/>
<path d="M9.77539 3.25H10.7754V3.75H9.77539V3.25Z" fill="white"/>
<path d="M4.77539 2.5H5.77539V3H4.77539V2.5Z" fill="#62727A"/>
<path d="M4.77539 2H5.77539V2.5H4.77539V2Z" fill="white"/>
<path d="M4.77539 1.25H5.77539V1.75H4.77539V1.25Z" fill="#62727A"/>
<path d="M4.77539 0.75H5.77539V1.25H4.77539V0.75Z" fill="white"/>
<path d="M4.77539 3.75H5.77539V4.25H4.77539V3.75Z" fill="#62727A"/>
<path d="M4.77539 3.25H5.77539V3.75H4.77539V3.25Z" fill="white"/>
<path d="M13.0254 7H12.2754V9H13.0254C13.1754 9 13.2754 8.9 13.2754 8.75V7.25C13.2754 7.125 13.1504 7 13.0254 7Z" fill="#E8E8E8"/>
<path d="M12.2754 7.375H13.2754V7.625H12.2754V7.375ZM12.2754 7.875H13.2754V8.125H12.2754V7.875ZM12.2754 8.375H13.2754V8.625H12.2754V8.375Z" fill="#62727A"/>
<path d="M7.77539 13C10.5368 13 12.7754 10.7614 12.7754 8C12.7754 5.23858 10.5368 3 7.77539 3C5.01397 3 2.77539 5.23858 2.77539 8C2.77539 10.7614 5.01397 13 7.77539 13Z" fill="#62727A"/>
<path d="M7.775 12.2746C10.136 12.2746 12.05 10.3606 12.05 7.99961C12.05 5.63859 10.136 3.72461 7.775 3.72461C5.41398 3.72461 3.5 5.63859 3.5 7.99961C3.5 10.3606 5.41398 12.2746 7.775 12.2746Z" fill="#3E4347"/>
<path d="M7.77578 8.47539C8.03812 8.47539 8.25078 8.26273 8.25078 8.00039C8.25078 7.73806 8.03812 7.52539 7.77578 7.52539C7.51345 7.52539 7.30078 7.73806 7.30078 8.00039C7.30078 8.26273 7.51345 8.47539 7.77578 8.47539Z" fill="#E8E8E8"/>
<path d="M8.02539 6.07461L7.90039 5.62461V4.89961C7.90039 3.99961 7.65039 3.99961 7.65039 4.89961V5.62461L7.52539 6.07461V7.52461C7.52539 7.89961 8.00039 7.89961 8.00039 7.52461L8.02539 6.07461Z" fill="#E8E8E8"/>
<path d="M7.43555 8.09094L7.67305 7.67969L9.72955 8.86769L9.49205 9.27894L7.43555 8.09094Z" fill="#E8E8E8"/>
<path d="M7.77539 8.25C7.91346 8.25 8.02539 8.13807 8.02539 8C8.02539 7.86193 7.91346 7.75 7.77539 7.75C7.63732 7.75 7.52539 7.86193 7.52539 8C7.52539 8.13807 7.63732 8.25 7.77539 8.25Z" fill="#62727A"/>
<path d="M7.77539 3.97461C7.91346 3.97461 8.02539 3.86268 8.02539 3.72461C8.02539 3.58654 7.91346 3.47461 7.77539 3.47461C7.63732 3.47461 7.52539 3.58654 7.52539 3.72461C7.52539 3.86268 7.63732 3.97461 7.77539 3.97461Z" fill="white"/>
<path d="M5.625 4.54883C5.76307 4.54883 5.875 4.4369 5.875 4.29883C5.875 4.16076 5.76307 4.04883 5.625 4.04883C5.48693 4.04883 5.375 4.16076 5.375 4.29883C5.375 4.4369 5.48693 4.54883 5.625 4.54883Z" fill="white"/>
<path d="M4.07422 6.09961C4.21229 6.09961 4.32422 5.98768 4.32422 5.84961C4.32422 5.71154 4.21229 5.59961 4.07422 5.59961C3.93615 5.59961 3.82422 5.71154 3.82422 5.84961C3.82422 5.98768 3.93615 6.09961 4.07422 6.09961Z" fill="white"/>
<path d="M3.5 8.25C3.63807 8.25 3.75 8.13807 3.75 8C3.75 7.86193 3.63807 7.75 3.5 7.75C3.36193 7.75 3.25 7.86193 3.25 8C3.25 8.13807 3.36193 8.25 3.5 8.25Z" fill="white"/>
<path d="M4.07422 10.4004C4.21229 10.4004 4.32422 10.2885 4.32422 10.1504C4.32422 10.0123 4.21229 9.90039 4.07422 9.90039C3.93615 9.90039 3.82422 10.0123 3.82422 10.1504C3.82422 10.2885 3.93615 10.4004 4.07422 10.4004Z" fill="white"/>
<path d="M5.42586 11.5996C5.50086 11.4746 5.62586 11.4496 5.75086 11.5246C5.87586 11.5996 5.90086 11.7246 5.85086 11.8496C5.77586 11.9746 5.65086 11.9996 5.52586 11.9246C5.40086 11.8496 5.35086 11.6996 5.42586 11.5996ZM7.52586 12.2746C7.52586 12.1496 7.62586 12.0246 7.77586 12.0246C7.92586 12.0246 8.02586 12.1246 8.02586 12.2746C8.02586 12.3996 7.92586 12.5246 7.77586 12.5246C7.65086 12.5246 7.52586 12.4246 7.52586 12.2746Z" fill="white"/>
<path d="M9.92578 11.9492C10.0639 11.9492 10.1758 11.8373 10.1758 11.6992C10.1758 11.5611 10.0639 11.4492 9.92578 11.4492C9.78771 11.4492 9.67578 11.5611 9.67578 11.6992C9.67578 11.8373 9.78771 11.9492 9.92578 11.9492Z" fill="white"/>
<path d="M11.375 10.35C11.25 10.275 11.225 10.15 11.3 10.025C11.375 9.9 11.5 9.875 11.625 9.95C11.75 10.025 11.775 10.15 11.7 10.275C11.625 10.375 11.475 10.425 11.375 10.35ZM12.05 8.25C11.925 8.25 11.8 8.15 11.8 8C11.8 7.85 11.9 7.75 12.05 7.75C12.175 7.75 12.3 7.85 12.3 8C12.3 8.125 12.2 8.25 12.05 8.25Z" fill="white"/>
<path d="M11.4746 6.09961C11.6127 6.09961 11.7246 5.98768 11.7246 5.84961C11.7246 5.71154 11.6127 5.59961 11.4746 5.59961C11.3365 5.59961 11.2246 5.71154 11.2246 5.84961C11.2246 5.98768 11.3365 6.09961 11.4746 6.09961Z" fill="white"/>
<path d="M9.92578 4.54883C10.0639 4.54883 10.1758 4.4369 10.1758 4.29883C10.1758 4.16076 10.0639 4.04883 9.92578 4.04883C9.78771 4.04883 9.67578 4.16076 9.67578 4.29883C9.67578 4.4369 9.78771 4.54883 9.92578 4.54883Z" fill="white"/>
</svg>
