<svg width="24" height="25" viewBox="0 0 24 25" fill="none" xmlns="http://www.w3.org/2000/svg">
<path d="M12 2.5C10.0716 2.5 8.18657 3.07183 6.58319 4.14317C4.97982 5.21451 3.73013 6.73726 2.99218 8.51884C2.25422 10.3004 2.06114 12.2608 2.43735 14.1521C2.81355 16.0434 3.74215 17.7807 5.10571 19.1443C6.46928 20.5079 8.20656 21.4365 10.0979 21.8127C11.9892 22.1889 13.9496 21.9958 15.7312 21.2578C17.5127 20.5199 19.0355 19.2702 20.1068 17.6668C21.1782 16.0634 21.75 14.1784 21.75 12.25C21.7473 9.66498 20.7192 7.18661 18.8913 5.35872C17.0634 3.53084 14.585 2.50273 12 2.5ZM12.75 20.4653V14.5H15C15.1989 14.5 15.3897 14.421 15.5303 14.2803C15.671 14.1397 15.75 13.9489 15.75 13.75C15.75 13.5511 15.671 13.3603 15.5303 13.2197C15.3897 13.079 15.1989 13 15 13H12.75V10.75C12.75 10.3522 12.908 9.97064 13.1893 9.68934C13.4706 9.40804 13.8522 9.25 14.25 9.25H15.75C15.9489 9.25 16.1397 9.17098 16.2803 9.03033C16.421 8.88968 16.5 8.69891 16.5 8.5C16.5 8.30109 16.421 8.11032 16.2803 7.96967C16.1397 7.82902 15.9489 7.75 15.75 7.75H14.25C13.4544 7.75 12.6913 8.06607 12.1287 8.62868C11.5661 9.19129 11.25 9.95435 11.25 10.75V13H9C8.80109 13 8.61033 13.079 8.46967 13.2197C8.32902 13.3603 8.25 13.5511 8.25 13.75C8.25 13.9489 8.32902 14.1397 8.46967 14.2803C8.61033 14.421 8.80109 14.5 9 14.5H11.25V20.4653C9.13575 20.2723 7.17728 19.2717 5.78198 17.6715C4.38667 16.0714 3.66195 13.9949 3.75855 11.8741C3.85515 9.75324 4.76564 7.75127 6.30064 6.2846C7.83563 4.81793 9.87696 3.99947 12 3.99947C14.1231 3.99947 16.1644 4.81793 17.6994 6.2846C19.2344 7.75127 20.1449 9.75324 20.2415 11.8741C20.3381 13.9949 19.6133 16.0714 18.218 17.6715C16.8227 19.2717 14.8643 20.2723 12.75 20.4653Z" fill="white"/>
</svg>
