<svg width="24" height="25" viewBox="0 0 24 25" fill="none" xmlns="http://www.w3.org/2000/svg">
<path d="M12 7.75C11.11 7.75 10.24 8.01392 9.49993 8.50839C8.75991 9.00285 8.18314 9.70566 7.84254 10.5279C7.50195 11.3502 7.41283 12.255 7.58647 13.1279C7.7601 14.0008 8.18868 14.8026 8.81802 15.432C9.44736 16.0613 10.2492 16.4899 11.1221 16.6635C11.995 16.8372 12.8998 16.7481 13.7221 16.4075C14.5443 16.0669 15.2471 15.4901 15.7416 14.7501C16.2361 14.01 16.5 13.14 16.5 12.25C16.4988 11.0569 16.0243 9.91303 15.1806 9.06939C14.337 8.22575 13.1931 7.75124 12 7.75ZM12 15.25C11.4067 15.25 10.8266 15.0741 10.3333 14.7444C9.83994 14.4148 9.45542 13.9462 9.22836 13.3981C9.0013 12.8499 8.94189 12.2467 9.05764 11.6647C9.1734 11.0828 9.45912 10.5482 9.87868 10.1287C10.2982 9.70912 10.8328 9.4234 11.4147 9.30764C11.9967 9.19189 12.5999 9.2513 13.1481 9.47836C13.6962 9.70542 14.1648 10.0899 14.4944 10.5833C14.8241 11.0766 15 11.6567 15 12.25C15 13.0456 14.6839 13.8087 14.1213 14.3713C13.5587 14.9339 12.7956 15.25 12 15.25ZM16.5 2.5H7.5C6.10807 2.50149 4.77358 3.05509 3.78933 4.03933C2.80509 5.02358 2.25149 6.35807 2.25 7.75V16.75C2.25149 18.1419 2.80509 19.4764 3.78933 20.4607C4.77358 21.4449 6.10807 21.9985 7.5 22H16.5C17.8919 21.9985 19.2264 21.4449 20.2107 20.4607C21.1949 19.4764 21.7485 18.1419 21.75 16.75V7.75C21.7485 6.35807 21.1949 5.02358 20.2107 4.03933C19.2264 3.05509 17.8919 2.50149 16.5 2.5ZM20.25 16.75C20.25 17.7446 19.8549 18.6984 19.1516 19.4016C18.4484 20.1049 17.4946 20.5 16.5 20.5H7.5C6.50544 20.5 5.55161 20.1049 4.84835 19.4016C4.14509 18.6984 3.75 17.7446 3.75 16.75V7.75C3.75 6.75544 4.14509 5.80161 4.84835 5.09835C5.55161 4.39509 6.50544 4 7.5 4H16.5C17.4946 4 18.4484 4.39509 19.1516 5.09835C19.8549 5.80161 20.25 6.75544 20.25 7.75V16.75ZM18 7.375C18 7.5975 17.934 7.81501 17.8104 8.00002C17.6868 8.18502 17.5111 8.32922 17.3055 8.41436C17.1 8.49951 16.8738 8.52179 16.6555 8.47838C16.4373 8.43498 16.2368 8.32783 16.0795 8.1705C15.9222 8.01316 15.815 7.81271 15.7716 7.59448C15.7282 7.37625 15.7505 7.15005 15.8356 6.94448C15.9208 6.73891 16.065 6.56321 16.25 6.4396C16.435 6.31598 16.6525 6.25 16.875 6.25C17.1734 6.25 17.4595 6.36853 17.6705 6.5795C17.8815 6.79048 18 7.07663 18 7.375Z" fill="white"/>
</svg>
