<svg width="18" height="13" viewBox="0 0 18 13" fill="none" xmlns="http://www.w3.org/2000/svg">
<path d="M16.5 0H1.5C1.33424 0 1.17527 0.0658481 1.05806 0.183058C0.940848 0.300269 0.875 0.45924 0.875 0.625V11.25C0.875 11.5815 1.0067 11.8995 1.24112 12.1339C1.47554 12.3683 1.79348 12.5 2.125 12.5H15.875C16.2065 12.5 16.5245 12.3683 16.7589 12.1339C16.9933 11.8995 17.125 11.5815 17.125 11.25V0.625C17.125 0.45924 17.0592 0.300269 16.9419 0.183058C16.8247 0.0658481 16.6658 0 16.5 0ZM9 6.65234L3.10703 1.25H14.893L9 6.65234ZM6.71172 6.25L2.125 10.4539V2.04609L6.71172 6.25ZM7.63672 7.09766L8.57422 7.96094C8.68953 8.06679 8.84035 8.12552 8.99687 8.12552C9.1534 8.12552 9.30422 8.06679 9.41953 7.96094L10.357 7.09766L14.8883 11.25H3.10703L7.63672 7.09766ZM11.2883 6.25L15.875 2.04531V10.4547L11.2883 6.25Z" fill="white"/>
</svg>
