<svg width="20" height="21" viewBox="0 0 20 21" fill="none" xmlns="http://www.w3.org/2000/svg">
<path d="M17.3727 12.6295L13.6922 10.9803L13.682 10.9756C13.491 10.8939 13.2825 10.8611 13.0756 10.8802C12.8687 10.8993 12.6698 10.9697 12.4969 11.085C12.4765 11.0984 12.457 11.1131 12.4383 11.1287L10.5367 12.7498C9.33203 12.1647 8.08828 10.9303 7.50312 9.74125L9.12656 7.81078C9.14219 7.79125 9.15703 7.77172 9.17109 7.75062C9.28393 7.5782 9.35239 7.38056 9.37038 7.17529C9.38837 6.97002 9.35534 6.76348 9.27422 6.57406V6.56469L7.62031 2.87797C7.51308 2.63052 7.32869 2.42438 7.09468 2.29034C6.86066 2.1563 6.58957 2.10153 6.32187 2.13422C5.26326 2.27352 4.29155 2.79341 3.58823 3.59679C2.88491 4.40017 2.49809 5.4321 2.5 6.49984C2.5 12.703 7.54687 17.7498 13.75 17.7498C14.8177 17.7518 15.8497 17.3649 16.653 16.6616C17.4564 15.9583 17.9763 14.9866 18.1156 13.928C18.1484 13.6604 18.0937 13.3893 17.9598 13.1553C17.8259 12.9213 17.62 12.7369 17.3727 12.6295ZM13.75 16.4998C11.0987 16.4969 8.55687 15.4424 6.68213 13.5677C4.80739 11.693 3.75289 9.15112 3.75 6.49984C3.74706 5.73694 4.02191 4.99906 4.52323 4.42399C5.02455 3.84892 5.71805 3.47599 6.47422 3.37484C6.47391 3.37796 6.47391 3.3811 6.47422 3.38422L8.11484 7.05609L6.5 8.9889C6.48361 9.00776 6.46872 9.02788 6.45547 9.04906C6.3379 9.22947 6.26893 9.43718 6.25525 9.65208C6.24156 9.86697 6.28362 10.0818 6.37734 10.2756C7.08516 11.7233 8.54375 13.1709 10.007 13.878C10.2023 13.9708 10.4183 14.0114 10.634 13.9958C10.8497 13.9802 11.0576 13.9089 11.2375 13.7889C11.2576 13.7754 11.2769 13.7608 11.2953 13.7452L13.1945 12.1248L16.8664 13.7694C16.8664 13.7694 16.8727 13.7694 16.875 13.7694C16.7751 14.5266 16.4027 15.2215 15.8275 15.7241C15.2524 16.2266 14.5138 16.5024 13.75 16.4998Z" fill="white"/>
</svg>
