<svg width="141" height="18" viewBox="0 0 141 18" fill="none" xmlns="http://www.w3.org/2000/svg">
<path d="M1.07049 13V4.27273H4.01935C4.70401 4.27273 5.26367 4.39631 5.69833 4.64347C6.13583 4.88778 6.45969 5.21875 6.66992 5.63636C6.88015 6.05398 6.98526 6.51989 6.98526 7.03409C6.98526 7.5483 6.88015 8.01562 6.66992 8.43608C6.46254 8.85653 6.14151 9.19176 5.70685 9.44176C5.27219 9.68892 4.71538 9.8125 4.0364 9.8125H1.92276V8.875H4.00231C4.47106 8.875 4.84748 8.79403 5.13157 8.6321C5.41566 8.47017 5.62163 8.25142 5.74947 7.97585C5.88015 7.69744 5.94549 7.38352 5.94549 7.03409C5.94549 6.68466 5.88015 6.37216 5.74947 6.09659C5.62163 5.82102 5.41424 5.60511 5.12731 5.44886C4.84038 5.28977 4.45969 5.21023 3.98526 5.21023H2.12731V13H1.07049ZM11.1401 13.1364C10.5492 13.1364 10.0307 12.9957 9.58469 12.7145C9.14151 12.4332 8.79492 12.0398 8.54492 11.5341C8.29776 11.0284 8.17418 10.4375 8.17418 9.76136C8.17418 9.07955 8.29776 8.48437 8.54492 7.97585C8.79492 7.46733 9.14151 7.07244 9.58469 6.79119C10.0307 6.50994 10.5492 6.36932 11.1401 6.36932C11.731 6.36932 12.248 6.50994 12.6912 6.79119C13.1373 7.07244 13.4838 7.46733 13.731 7.97585C13.981 8.48437 14.106 9.07955 14.106 9.76136C14.106 10.4375 13.981 11.0284 13.731 11.5341C13.4838 12.0398 13.1373 12.4332 12.6912 12.7145C12.248 12.9957 11.731 13.1364 11.1401 13.1364ZM11.1401 12.233C11.589 12.233 11.9583 12.1179 12.248 11.8878C12.5378 11.6577 12.7523 11.3551 12.8915 10.9801C13.0307 10.6051 13.1003 10.1989 13.1003 9.76136C13.1003 9.32386 13.0307 8.91619 12.8915 8.53835C12.7523 8.16051 12.5378 7.85511 12.248 7.62216C11.9583 7.3892 11.589 7.27273 11.1401 7.27273C10.6912 7.27273 10.3219 7.3892 10.0321 7.62216C9.74237 7.85511 9.52788 8.16051 9.38867 8.53835C9.24947 8.91619 9.17987 9.32386 9.17987 9.76136C9.17987 10.1989 9.24947 10.6051 9.38867 10.9801C9.52788 11.3551 9.74237 11.6577 10.0321 11.8878C10.3219 12.1179 10.6912 12.233 11.1401 12.233ZM16.9015 13L14.9071 6.45455H15.964L17.3787 11.4659H17.4469L18.8446 6.45455H19.9185L21.2992 11.4489H21.3674L22.7821 6.45455H23.839L21.8446 13H20.856L19.4242 7.97159H19.3219L17.8901 13H16.9015ZM27.6902 13.1364C27.0595 13.1364 26.5154 12.9972 26.0581 12.7188C25.6035 12.4375 25.2527 12.0455 25.0055 11.5426C24.7612 11.0369 24.639 10.4489 24.639 9.77841C24.639 9.10795 24.7612 8.51705 25.0055 8.00568C25.2527 7.49148 25.5964 7.09091 26.0368 6.80398C26.4799 6.5142 26.997 6.36932 27.5879 6.36932C27.9288 6.36932 28.2654 6.42614 28.5978 6.53977C28.9302 6.65341 29.2328 6.83807 29.5055 7.09375C29.7782 7.34659 29.9956 7.68182 30.1575 8.09943C30.3194 8.51705 30.4004 9.03125 30.4004 9.64205V10.0682H25.3549V9.19886H29.3777C29.3777 8.82955 29.3038 8.5 29.1561 8.21023C29.0112 7.92045 28.8038 7.69176 28.5339 7.52415C28.2669 7.35653 27.9515 7.27273 27.5879 7.27273C27.1873 7.27273 26.8407 7.37216 26.5481 7.57102C26.2583 7.76705 26.0353 8.02273 25.8791 8.33807C25.7228 8.65341 25.6447 8.99148 25.6447 9.35227V9.93182C25.6447 10.4261 25.7299 10.8452 25.9004 11.1889C26.0737 11.5298 26.3137 11.7898 26.6206 11.9688C26.9274 12.1449 27.2839 12.233 27.6902 12.233C27.9544 12.233 28.193 12.196 28.4061 12.1222C28.622 12.0455 28.8081 11.9318 28.9643 11.7812C29.1206 11.6278 29.2413 11.4375 29.3265 11.2102L30.2981 11.483C30.1958 11.8125 30.024 12.1023 29.7825 12.3523C29.541 12.5994 29.2427 12.7926 28.8876 12.9318C28.5325 13.0682 28.1333 13.1364 27.6902 13.1364ZM31.9302 13V6.45455H32.9018V7.44318H32.97C33.0893 7.11932 33.3052 6.85653 33.6177 6.65483C33.9302 6.45312 34.2825 6.35227 34.6745 6.35227C34.7484 6.35227 34.8407 6.35369 34.9515 6.35653C35.0623 6.35937 35.1461 6.36364 35.2029 6.36932V7.39205C35.1689 7.38352 35.0907 7.37074 34.9686 7.35369C34.8493 7.33381 34.7228 7.32386 34.5893 7.32386C34.2711 7.32386 33.987 7.39062 33.737 7.52415C33.4899 7.65483 33.2939 7.83665 33.149 8.0696C33.0069 8.29972 32.9359 8.5625 32.9359 8.85795V13H31.9302ZM38.9402 13.1364C38.3095 13.1364 37.7654 12.9972 37.3081 12.7188C36.8535 12.4375 36.5027 12.0455 36.2555 11.5426C36.0112 11.0369 35.889 10.4489 35.889 9.77841C35.889 9.10795 36.0112 8.51705 36.2555 8.00568C36.5027 7.49148 36.8464 7.09091 37.2868 6.80398C37.7299 6.5142 38.247 6.36932 38.8379 6.36932C39.1788 6.36932 39.5154 6.42614 39.8478 6.53977C40.1802 6.65341 40.4828 6.83807 40.7555 7.09375C41.0282 7.34659 41.2456 7.68182 41.4075 8.09943C41.5694 8.51705 41.6504 9.03125 41.6504 9.64205V10.0682H36.6049V9.19886H40.6277C40.6277 8.82955 40.5538 8.5 40.4061 8.21023C40.2612 7.92045 40.0538 7.69176 39.7839 7.52415C39.5169 7.35653 39.2015 7.27273 38.8379 7.27273C38.4373 7.27273 38.0907 7.37216 37.7981 7.57102C37.5083 7.76705 37.2853 8.02273 37.1291 8.33807C36.9728 8.65341 36.8947 8.99148 36.8947 9.35227V9.93182C36.8947 10.4261 36.9799 10.8452 37.1504 11.1889C37.3237 11.5298 37.5637 11.7898 37.8706 11.9688C38.1774 12.1449 38.5339 12.233 38.9402 12.233C39.2044 12.233 39.443 12.196 39.6561 12.1222C39.872 12.0455 40.0581 11.9318 40.2143 11.7812C40.3706 11.6278 40.4913 11.4375 40.5765 11.2102L41.5481 11.483C41.4458 11.8125 41.274 12.1023 41.0325 12.3523C40.791 12.5994 40.4927 12.7926 40.1376 12.9318C39.7825 13.0682 39.3833 13.1364 38.9402 13.1364ZM45.6518 13.1364C45.1064 13.1364 44.6248 12.9986 44.2072 12.723C43.7896 12.4446 43.4629 12.0526 43.2271 11.5469C42.9913 11.0384 42.8734 10.4375 42.8734 9.74432C42.8734 9.05682 42.9913 8.46023 43.2271 7.95455C43.4629 7.44886 43.791 7.05824 44.2115 6.78267C44.6319 6.5071 45.1177 6.36932 45.6689 6.36932C46.095 6.36932 46.4316 6.44034 46.6788 6.58239C46.9288 6.72159 47.1191 6.88068 47.2498 7.05966C47.3833 7.2358 47.487 7.38068 47.5609 7.49432H47.6461V4.27273H48.6518V13H47.6802V11.9943H47.5609C47.487 12.1136 47.3819 12.2642 47.2456 12.446C47.1092 12.625 46.9146 12.7855 46.6618 12.9276C46.4089 13.0668 46.0723 13.1364 45.6518 13.1364ZM45.7882 12.233C46.1916 12.233 46.5325 12.1278 46.8109 11.9176C47.0893 11.7045 47.301 11.4105 47.4458 11.0355C47.5907 10.6577 47.6632 10.2216 47.6632 9.72727C47.6632 9.23864 47.5922 8.81108 47.4501 8.4446C47.3081 8.07528 47.0978 7.78835 46.8194 7.58381C46.541 7.37642 46.1973 7.27273 45.7882 7.27273C45.362 7.27273 45.0069 7.3821 44.7228 7.60085C44.4416 7.81676 44.2299 8.1108 44.0879 8.48295C43.9487 8.85227 43.8791 9.26705 43.8791 9.72727C43.8791 10.1932 43.9501 10.6165 44.0922 10.9972C44.237 11.375 44.4501 11.6761 44.7314 11.9006C45.0154 12.1222 45.3677 12.233 45.7882 12.233ZM54.1447 13V4.27273H55.1504V7.49432H55.2356C55.3095 7.38068 55.4118 7.2358 55.5424 7.05966C55.676 6.88068 55.8663 6.72159 56.1135 6.58239C56.3635 6.44034 56.7015 6.36932 57.1277 6.36932C57.6788 6.36932 58.1646 6.5071 58.585 6.78267C59.0055 7.05824 59.3336 7.44886 59.5694 7.95455C59.8052 8.46023 59.9231 9.05682 59.9231 9.74432C59.9231 10.4375 59.8052 11.0384 59.5694 11.5469C59.3336 12.0526 59.0069 12.4446 58.5893 12.723C58.1717 12.9986 57.6902 13.1364 57.1447 13.1364C56.7243 13.1364 56.3876 13.0668 56.1348 12.9276C55.8819 12.7855 55.6873 12.625 55.551 12.446C55.4146 12.2642 55.3095 12.1136 55.2356 11.9943H55.1163V13H54.1447ZM55.1333 9.72727C55.1333 10.2216 55.2058 10.6577 55.3507 11.0355C55.4956 11.4105 55.7072 11.7045 55.9856 11.9176C56.264 12.1278 56.6049 12.233 57.0083 12.233C57.4288 12.233 57.7797 12.1222 58.0609 11.9006C58.345 11.6761 58.5581 11.375 58.7001 10.9972C58.845 10.6165 58.9174 10.1932 58.9174 9.72727C58.9174 9.26705 58.8464 8.85227 58.7044 8.48295C58.5652 8.1108 58.3535 7.81676 58.0694 7.60085C57.7882 7.3821 57.4345 7.27273 57.0083 7.27273C56.5993 7.27273 56.2555 7.37642 55.9771 7.58381C55.6987 7.78835 55.4885 8.07528 55.3464 8.4446C55.2044 8.81108 55.1333 9.23864 55.1333 9.72727ZM61.8748 15.4545C61.7044 15.4545 61.5524 15.4403 61.4189 15.4119C61.2853 15.3864 61.193 15.3608 61.1419 15.3352L61.3975 14.4489C61.6419 14.5114 61.8578 14.5341 62.0453 14.517C62.2328 14.5 62.399 14.4162 62.5439 14.2656C62.6916 14.1179 62.8265 13.8778 62.9487 13.5455L63.1362 13.0341L60.7157 6.45455H61.8066L63.6135 11.6705H63.6816L65.4885 6.45455H66.5794L63.801 13.9545C63.676 14.2926 63.5211 14.5724 63.3365 14.794C63.1518 15.0185 62.9373 15.1847 62.693 15.2926C62.4515 15.4006 62.1788 15.4545 61.8748 15.4545Z" fill="#6B7280"/>
<path d="M88.961 1.72705C89.2841 1.72705 89.5461 1.98903 89.5461 2.3122V6.0294C89.5461 6.35257 89.2841 6.61455 88.961 6.61455H79.6511C79.328 6.61455 79.066 6.87653 79.066 7.19969V9.04796C79.066 9.37113 78.804 9.63311 78.4808 9.63311H75.5851C75.262 9.63311 75 9.37113 75 9.04796V6.15226C75 5.82909 75.262 5.56711 75.5851 5.56711H77.4404C77.7636 5.56711 78.0256 5.30513 78.0256 4.98197V2.3122C78.0256 1.98903 78.2876 1.72705 78.6107 1.72705H88.961Z" fill="url(#paint0_linear_5281_34626)"/>
<path d="M75.5851 16.2732C75.262 16.2732 75 16.0112 75 15.688L75 12.0872C75 11.764 75.262 11.502 75.5851 11.502L84.8471 11.502C85.1703 11.502 85.4323 11.2401 85.4323 10.9169L85.4323 8.98064C85.4323 8.65747 85.6943 8.3955 86.0174 8.3955H88.9131C89.2363 8.3955 89.4983 8.65747 89.4983 8.98064L89.4983 11.8763C89.4983 12.1995 89.2363 12.4615 88.9131 12.4615H86.9893C86.6661 12.4615 86.4042 12.7235 86.4042 13.0466L86.4042 15.688C86.4042 16.0112 86.1422 16.2732 85.819 16.2732L75.5851 16.2732Z" fill="url(#paint1_linear_5281_34626)"/>
<path d="M101.074 4.79284C103.193 4.79284 104.364 5.64693 104.554 7.37092H102.924C102.798 6.92806 102.608 6.62755 102.339 6.45357C102.055 6.26377 101.612 6.16887 101.042 6.16887C100.536 6.16887 100.157 6.23214 99.9035 6.3903C99.603 6.54846 99.4607 6.80153 99.4607 7.11786C99.4607 7.40255 99.6821 7.6398 100.125 7.84541C100.41 7.97194 100.947 8.13011 101.77 8.33572C102.703 8.55715 103.399 8.82603 103.842 9.11073C104.49 9.52195 104.822 10.0913 104.822 10.8189C104.822 12.5429 103.605 13.4128 101.185 13.4128C98.9387 13.4128 97.7367 12.448 97.5469 10.55H99.1918C99.2867 11.1036 99.4923 11.499 99.777 11.7204C100.062 11.9261 100.505 12.0368 101.137 12.0368C102.434 12.0368 103.098 11.6572 103.098 10.9296C103.098 10.5342 102.845 10.2179 102.371 9.99645C102.118 9.86992 101.564 9.71175 100.726 9.52195C99.7612 9.30052 99.0811 9.06328 98.7015 8.81021C98.0688 8.4148 97.7525 7.86123 97.7525 7.16531C97.7525 6.42193 98.053 5.83672 98.6698 5.4255C99.2867 4.99845 100.093 4.79284 101.074 4.79284Z" fill="white"/>
<path d="M109.244 4.79284C110.288 4.79284 111.126 5.03009 111.758 5.50458C112.391 6.01071 112.802 6.76989 112.96 7.78215H111.3C111.189 7.22857 110.968 6.81734 110.62 6.56428C110.272 6.2954 109.813 6.16887 109.244 6.16887C108.548 6.16887 108.01 6.42193 107.615 6.94387C107.203 7.45 107.014 8.17756 107.014 9.09491C107.014 10.0123 107.203 10.7398 107.599 11.2618C107.962 11.7679 108.5 12.0368 109.228 12.0368C110.477 12.0368 111.173 11.4041 111.331 10.1704H112.992C112.802 11.2618 112.375 12.0842 111.743 12.622C111.11 13.1439 110.256 13.4128 109.212 13.4128C107.962 13.4128 106.998 13.0016 106.302 12.1791C105.622 11.3883 105.29 10.376 105.29 9.11073C105.29 7.87704 105.622 6.86479 106.286 6.07397C106.998 5.21988 107.978 4.79284 109.244 4.79284Z" fill="white"/>
<path d="M117.478 4.79284C118.68 4.79284 119.566 5.09335 120.135 5.69438C120.625 6.21632 120.878 6.97551 120.878 7.97194V13.1914H119.328V12.0368C119.012 12.448 118.617 12.7801 118.142 13.0174C117.604 13.2704 116.972 13.4128 116.244 13.4128C115.39 13.4128 114.726 13.1914 114.251 12.7643C113.729 12.3373 113.476 11.7837 113.476 11.1036C113.476 10.1862 113.84 9.4745 114.568 8.9842C115.232 8.5097 116.181 8.27246 117.383 8.24082L119.218 8.19337V7.86123C119.218 6.72245 118.601 6.15305 117.367 6.15305C116.845 6.15305 116.418 6.24795 116.102 6.43775C115.722 6.65918 115.485 6.99132 115.39 7.45L113.729 7.30765C113.903 6.42193 114.346 5.75764 115.042 5.34642C115.643 4.96682 116.466 4.79284 117.478 4.79284ZM119.218 9.41124L117.494 9.45869C115.96 9.49032 115.2 10.0281 115.2 11.0403C115.2 11.3567 115.327 11.6097 115.596 11.8153C115.849 12.021 116.197 12.1317 116.624 12.1317C117.336 12.1317 117.937 11.9102 118.443 11.4832C118.949 11.0561 119.218 10.5184 119.218 9.88573V9.41124Z" fill="white"/>
<path d="M122.355 1.677H124.031V13.1914H122.355V1.677Z" fill="white"/>
<path d="M124.616 5.01427H126.435L128.681 10.9771L130.832 5.01427H132.667L128.223 16.323H126.435L127.859 13.0016L124.616 5.01427Z" fill="white"/>
<path d="M132.549 5.01427H134.51L136.314 7.60817L138.101 5.01427H140.062L137.231 8.84185L140.41 13.1914H138.449L136.314 10.0755L134.163 13.1914H132.185L135.38 8.84185L132.549 5.01427Z" fill="white"/>
<defs>
<linearGradient id="paint0_linear_5281_34626" x1="81.9002" y1="2.27055" x2="81.9002" y2="16.7275" gradientUnits="userSpaceOnUse">
<stop stop-color="#35D7FF"/>
<stop offset="1" stop-color="#623FED"/>
</linearGradient>
<linearGradient id="paint1_linear_5281_34626" x1="81.9002" y1="2.27055" x2="81.9002" y2="16.7275" gradientUnits="userSpaceOnUse">
<stop stop-color="#35D7FF"/>
<stop offset="1" stop-color="#623FED"/>
</linearGradient>
</defs>
</svg>
