<svg width="143" height="17" viewBox="0 0 143 17" fill="none" xmlns="http://www.w3.org/2000/svg">
<path d="M4.58811 16.2503C3.52355 15.7358 2.65391 15.067 1.97918 14.2438C1.30446 13.406 0.802169 12.5093 0.472305 11.5538C0.157435 10.5837 0 9.64289 0 8.73152V8.24643C0 7.24687 0.164932 6.262 0.494796 5.29183C0.82466 4.30696 1.32695 3.41764 2.00167 2.62387C2.69139 1.83009 3.55353 1.19801 4.58811 0.727626C5.63767 0.242542 6.87467 0 8.29908 0C9.78347 0 11.0954 0.271941 12.235 0.815823C13.3745 1.35971 14.2816 2.11673 14.9563 3.0869C15.646 4.04237 16.0509 5.16688 16.1708 6.46044H12.4599C12.3549 5.81366 12.115 5.26243 11.7402 4.80674C11.3653 4.35106 10.878 3.99827 10.2783 3.74838C9.6935 3.49849 9.03378 3.37354 8.29908 3.37354C7.56438 3.37354 6.91215 3.49849 6.34238 3.74838C5.77262 3.99827 5.29282 4.35106 4.90298 4.80674C4.52813 5.26243 4.23575 5.80631 4.02584 6.43839C3.83092 7.05577 3.73346 7.74665 3.73346 8.51102C3.73346 9.2607 3.83092 9.95158 4.02584 10.5837C4.23575 11.201 4.53563 11.7449 4.92547 12.2153C5.3303 12.671 5.8251 13.0238 6.40986 13.2737C6.99462 13.5089 7.66184 13.6265 8.41153 13.6265C9.55106 13.6265 10.5107 13.3545 11.2903 12.8106C12.085 12.2668 12.5648 11.5171 12.7298 10.5616H16.4182C16.2833 11.7376 15.8785 12.818 15.2037 13.8029C14.544 14.773 13.6369 15.5521 12.4824 16.1401C11.3428 16.7134 9.98588 17 8.41153 17C6.92714 17 5.65267 16.7501 4.58811 16.2503Z" fill="white"/>
<path fill-rule="evenodd" clip-rule="evenodd" d="M26.7371 17C25.2527 17 23.9557 16.7501 22.8462 16.2503C21.7516 15.7358 20.8445 15.067 20.1248 14.2438C19.4051 13.406 18.8653 12.5019 18.5055 11.5318C18.1606 10.5616 17.9882 9.62819 17.9882 8.73152V8.24643C17.9882 7.24687 18.1681 6.262 18.528 5.29183C18.9028 4.30696 19.4576 3.41764 20.1923 2.62387C20.927 1.83009 21.8416 1.19801 22.9361 0.727626C24.0307 0.242542 25.2977 0 26.7371 0C28.1765 0 29.4435 0.242542 30.538 0.727626C31.6326 1.19801 32.5472 1.83009 33.2819 2.62387C34.0166 3.41764 34.5714 4.30696 34.9462 5.29183C35.321 6.262 35.5085 7.24687 35.5085 8.24643V8.73152C35.5085 9.62819 35.3285 10.5616 34.9687 11.5318C34.6088 12.5019 34.0691 13.406 33.3494 14.2438C32.6297 15.067 31.715 15.7358 30.6055 16.2503C29.5109 16.7501 28.2215 17 26.7371 17ZM26.7371 13.6265C27.5168 13.6265 28.214 13.4942 28.8287 13.2296C29.4585 12.965 29.9907 12.5975 30.4256 12.1271C30.8754 11.6567 31.2127 11.1128 31.4376 10.4955C31.6625 9.87808 31.775 9.2166 31.775 8.51102C31.775 7.76135 31.6551 7.07782 31.4152 6.46044C31.1902 5.82836 30.8529 5.28448 30.4031 4.82879C29.9682 4.35841 29.4435 3.99827 28.8287 3.74838C28.214 3.49849 27.5168 3.37354 26.7371 3.37354C25.9574 3.37354 25.2602 3.49849 24.6454 3.74838C24.0307 3.99827 23.4984 4.35841 23.0486 4.82879C22.6138 5.28448 22.2839 5.82836 22.059 6.46044C21.8341 7.07782 21.7216 7.76135 21.7216 8.51102C21.7216 9.2166 21.8341 9.87808 22.059 10.4955C22.2839 11.1128 22.6138 11.6567 23.0486 12.1271C23.4984 12.5975 24.0307 12.965 24.6454 13.2296C25.2602 13.4942 25.9574 13.6265 26.7371 13.6265Z" fill="white"/>
<path d="M38.3031 0.485085V16.5811H41.7217V3.41764H42.0366L48.2215 16.5811H54.3165V3.41764H54.5283L60.7133 16.5811H66.8083V0.485085H63.3447V13.6485H63.0298L56.8449 0.485085H50.7949V13.6485H50.5381L44.3531 0.485085H38.3031Z" fill="white"/>
<path fill-rule="evenodd" clip-rule="evenodd" d="M115.421 17C113.936 17 112.639 16.7501 111.53 16.2503C110.435 15.7358 109.528 15.067 108.808 14.2438C108.089 13.406 107.549 12.5019 107.189 11.5318C106.844 10.5616 106.672 9.62819 106.672 8.73152V8.24643C106.672 7.24687 106.852 6.262 107.211 5.29183C107.586 4.30696 108.141 3.41764 108.876 2.62387C109.61 1.83009 110.525 1.19801 111.62 0.727626C112.714 0.242542 113.981 0 115.421 0C116.86 0 118.127 0.242542 119.221 0.727626C120.316 1.19801 121.231 1.83009 121.965 2.62387C122.7 3.41764 123.255 4.30696 123.63 5.29183C124.005 6.262 124.192 7.24687 124.192 8.24643V8.73152C124.192 9.62819 124.012 10.5616 123.652 11.5318C123.292 12.5019 122.753 13.406 122.033 14.2438C121.313 15.067 120.399 15.7358 119.289 16.2503C118.194 16.7501 116.905 17 115.421 17ZM115.421 13.6265C116.2 13.6265 116.897 13.4942 117.512 13.2296C118.142 12.965 118.674 12.5975 119.109 12.1271C119.559 11.6567 119.896 11.1128 120.121 10.4955C120.346 9.87808 120.458 9.2166 120.458 8.51102C120.458 7.76135 120.339 7.07782 120.099 6.46044C119.874 5.82836 119.536 5.28448 119.087 4.82879C118.652 4.35841 118.127 3.99827 117.512 3.74838C116.897 3.49849 116.2 3.37354 115.421 3.37354C114.641 3.37354 113.944 3.49849 113.329 3.74838C112.714 3.99827 112.182 4.35841 111.732 4.82879C111.297 5.28448 110.967 5.82836 110.742 6.46044C110.518 7.07782 110.405 7.76135 110.405 8.51102C110.405 9.2166 110.518 9.87808 110.742 10.4955C110.967 11.1128 111.297 11.6567 111.732 12.1271C112.182 12.5975 112.714 12.965 113.329 13.2296C113.944 13.4942 114.641 13.6265 115.421 13.6265Z" fill="white"/>
<path d="M70.4962 0.485085V16.5811H80.8195V13.5824H74.0947V9.90013H80.3022V6.90143H74.0947V3.48379H80.662V0.485085H70.4962Z" fill="white"/>
<path d="M82.2083 16.5811L87.7083 8.15728L82.6806 0.485085H86.7289L89.9226 5.51232H90.4399L93.5886 0.485085H97.5245L92.4136 8.29377L98.0417 16.5811H93.9709L90.2375 10.8923H89.6977L86.1441 16.5811H82.2083Z" fill="white"/>
<path d="M100.126 0.485085V16.5811H103.815V0.485085H100.126Z" fill="white"/>
<path d="M126.987 0.485085V16.5811H130.405V3.41764H130.72L136.905 16.5811H143V0.485085H139.536V13.6485H139.222L133.037 0.485085H126.987Z" fill="white"/>
</svg>
