<svg width="100" height="25" viewBox="0 0 100 25" fill="none" xmlns="http://www.w3.org/2000/svg">
<path d="M35.9578 5.2053C39.4083 5.2053 41.3139 6.63213 41.6229 9.51222H38.9706C38.7646 8.77238 38.4556 8.27035 38.0178 7.9797C37.5543 7.66262 36.8333 7.50409 35.9063 7.50409C35.0823 7.50409 34.4643 7.60978 34.0523 7.87401C33.563 8.13824 33.3313 8.561 33.3313 9.08946C33.3313 9.56507 33.6918 9.96141 34.4128 10.3049C34.8763 10.5163 35.7518 10.7805 37.0908 11.124C38.6101 11.4939 39.7431 11.9431 40.4641 12.4187C41.5199 13.1057 42.0606 14.057 42.0606 15.2724C42.0606 18.1525 40.0779 19.6058 36.138 19.6058C32.4815 19.6058 30.5245 17.994 30.2155 14.8232H32.8935C33.048 15.748 33.3828 16.4086 33.8463 16.7785C34.3098 17.122 35.0308 17.307 36.0608 17.307C38.1723 17.307 39.2538 16.6728 39.2538 15.4574C39.2538 14.7968 38.8418 14.2683 38.0693 13.8984C37.6573 13.687 36.7561 13.4228 35.3913 13.1057C33.8205 12.7358 32.7132 12.3395 32.0952 11.9167C31.0652 11.2561 30.5502 10.3313 30.5502 9.16873C30.5502 7.92685 31.0395 6.94921 32.0437 6.26221C33.048 5.5488 34.3613 5.2053 35.9578 5.2053Z" fill="white"/>
<path d="M49.2587 5.2053C50.9582 5.2053 52.323 5.60164 53.353 6.39433C54.383 7.23986 55.0525 8.50816 55.31 10.1992H52.6062C52.426 9.27442 52.0655 8.58742 51.499 8.16466C50.9325 7.71547 50.1857 7.50409 49.2587 7.50409C48.1257 7.50409 47.2501 7.92685 46.6064 8.79881C45.9369 9.64434 45.6279 10.8598 45.6279 12.3923C45.6279 13.9248 45.9369 15.1403 46.5806 16.0122C47.1729 16.8578 48.0484 17.307 49.2329 17.307C51.2672 17.307 52.4002 16.25 52.6577 14.1891H55.3615C55.0525 16.0122 54.3573 17.3862 53.3272 18.2846C52.2972 19.1566 50.9067 19.6058 49.2072 19.6058C47.1729 19.6058 45.6021 18.9188 44.4691 17.5448C43.3618 16.2236 42.8211 14.5326 42.8211 12.4187C42.8211 10.3578 43.3618 8.66669 44.4434 7.34555C45.6021 5.91872 47.1986 5.2053 49.2587 5.2053Z" fill="white"/>
<path d="M62.6648 5.2053C64.6218 5.2053 66.0638 5.70733 66.9908 6.7114C67.7891 7.58336 68.2011 8.85165 68.2011 10.5163V19.2358H65.6776V17.307C65.1626 17.994 64.5188 18.5488 63.7463 18.9452C62.8708 19.3679 61.8408 19.6058 60.6562 19.6058C59.2657 19.6058 58.1842 19.2358 57.4117 18.5224C56.5619 17.809 56.1499 16.8842 56.1499 15.748C56.1499 14.2155 56.7422 13.0265 57.9267 12.2074C59.0082 11.4147 60.5532 11.0183 62.5103 10.9655L65.4973 10.8862V10.3313C65.4973 8.42889 64.4931 7.47767 62.4845 7.47767C61.6348 7.47767 60.9395 7.6362 60.4245 7.95328C59.8065 8.3232 59.4202 8.87808 59.2657 9.64434L56.5619 9.40653C56.8452 7.92685 57.5662 6.81709 58.6992 6.1301C59.6777 5.49595 61.0168 5.2053 62.6648 5.2053ZM65.4973 12.9208L62.6905 13C60.1927 13.0529 58.9567 13.9513 58.9567 15.6423C58.9567 16.1708 59.1627 16.5935 59.6005 16.937C60.0125 17.2805 60.579 17.4655 61.2743 17.4655C62.433 17.4655 63.4115 17.0956 64.2355 16.3822C65.0596 15.6687 65.4973 14.7704 65.4973 13.7135V12.9208Z" fill="white"/>
<path d="M70.6045 0H73.3341V19.2358H70.6045V0Z" fill="white"/>
<path d="M74.2869 5.57522H77.2482L80.9047 15.5366L84.4068 5.57522H87.3938L80.1579 24.4676H77.2482L79.5657 18.9188L74.2869 5.57522Z" fill="white"/>
<path d="M87.2021 5.57522H90.3951L93.3307 9.90857L96.2405 5.57522H99.4335L94.8242 11.9695L100 19.2358H96.807L93.3307 14.0305L89.8286 19.2358H86.6098L91.8114 11.9695L87.2021 5.57522Z" fill="white"/>
<path d="M20.2949 11.4014C22.1227 11.4016 23.6043 12.8831 23.6045 14.7109V15.6748C23.6044 16.9787 22.6136 18.0516 21.3438 18.1807L20.8281 18.2061C19.5583 18.3352 18.5674 19.408 18.5674 20.7119V21.377C18.5674 23.1353 17.1421 24.5613 15.3838 24.5615H3.98535C1.78438 24.5615 6.07407e-05 22.7771 0 20.5762C1.87522e-07 18.3752 1.78435 16.5909 3.98535 16.5908H14.3896C15.733 16.5908 16.8376 15.5699 16.9707 14.2617L16.998 13.7305C17.131 12.4222 18.2358 11.4014 19.5791 11.4014H20.2949ZM19.6006 0.260742C21.8552 0.260878 23.6826 2.08912 23.6826 4.34375C23.6824 6.59816 21.855 8.42564 19.6006 8.42578H9.1416C7.74913 8.42591 6.62012 9.55477 6.62012 10.9473C6.62012 12.3398 5.49121 13.4688 4.09863 13.4688H3.31055C1.48261 13.4688 0.000260673 11.9871 0 10.1592V9.13867C2.96858e-06 7.8636 0.969188 6.81477 2.21094 6.68848L2.71484 6.66309C3.95682 6.53701 4.92578 5.48813 4.92578 4.21289V3.46875C4.92578 1.69729 6.36233 0.260742 8.13379 0.260742H19.6006Z" fill="url(#paint0_linear_7525_4398)"/>
<defs>
<linearGradient id="paint0_linear_7525_4398" x1="11.2343" y1="1.16873" x2="11.2343" y2="25.3207" gradientUnits="userSpaceOnUse">
<stop stop-color="#35D7FF"/>
<stop offset="1" stop-color="#623FED"/>
</linearGradient>
</defs>
</svg>
