<svg width="18" height="19" viewBox="0 0 18 19" fill="none" xmlns="http://www.w3.org/2000/svg">
<path d="M17.1328 17.0978L11.2641 7.87469L17.055 1.50438C17.186 1.35674 17.2535 1.16343 17.2429 0.966365C17.2323 0.769295 17.1444 0.584346 16.9984 0.451615C16.8523 0.318884 16.6598 0.24907 16.4627 0.257309C16.2655 0.265547 16.0795 0.351174 15.945 0.495625L10.4288 6.56312L6.63282 0.597813C6.56513 0.49127 6.47164 0.403535 6.36103 0.342735C6.25041 0.281936 6.12623 0.250039 6.00001 0.25H1.50001C1.36553 0.249935 1.23351 0.286026 1.11777 0.354494C1.00204 0.422962 0.906835 0.521288 0.84214 0.639177C0.777445 0.757066 0.745636 0.89018 0.750044 1.02458C0.754451 1.15898 0.794913 1.28973 0.867193 1.40313L6.73594 10.6253L0.945006 17.0003C0.877381 17.073 0.824846 17.1583 0.790447 17.2514C0.756048 17.3445 0.740468 17.4435 0.744611 17.5427C0.748754 17.6418 0.772538 17.7392 0.814583 17.8291C0.856627 17.919 0.916097 17.9996 0.989546 18.0664C1.063 18.1331 1.14896 18.1846 1.24246 18.2179C1.33597 18.2512 1.43514 18.2656 1.53425 18.2603C1.63335 18.2549 1.73041 18.23 1.81981 18.1869C1.9092 18.1437 1.98914 18.0833 2.05501 18.0091L7.57126 11.9416L11.3672 17.9069C11.4354 18.0125 11.5292 18.0994 11.6397 18.1593C11.7503 18.2193 11.8742 18.2505 12 18.25H16.5C16.6343 18.25 16.7662 18.2138 16.8818 18.1454C16.9974 18.077 17.0925 17.9788 17.1572 17.861C17.2218 17.7433 17.2537 17.6104 17.2494 17.4761C17.2451 17.3418 17.2049 17.2112 17.1328 17.0978ZM12.4116 16.75L2.86594 1.75H5.58469L15.1341 16.75H12.4116Z" fill="white"/>
</svg>
