<svg width="7" height="12" viewBox="0 0 7 12" fill="none" xmlns="http://www.w3.org/2000/svg">
<path d="M2.12286 3.30548C2.01638 4.12648 2.67479 4.88847 2.67479 4.88847C2.67479 4.88847 3.50619 4.31948 3.61268 3.49848C3.71917 2.67699 3.06075 1.91499 3.06075 1.91499C3.06075 1.91499 2.22985 2.48499 2.12286 3.30548ZM1.34146 6.06497C1.68942 6.81646 2.6533 7.11146 2.6533 7.11146C2.6533 7.11146 3.05325 6.18796 2.70529 5.43647C2.35733 4.68497 1.39345 4.38948 1.39345 4.38948C1.39345 4.38948 0.993501 5.31347 1.34146 6.06497ZM1.75191 8.70745C2.41583 9.20395 3.4047 9.00695 3.4047 9.00695C3.4047 9.00695 3.31672 8.00445 2.6528 7.50796C1.98888 7.01146 1 7.20846 1 7.20846C1 7.20846 1.08799 8.21095 1.75191 8.70745ZM3.55619 10.8564C4.30859 11.2054 5.23548 10.8089 5.23548 10.8089C5.23548 10.8089 4.94202 9.84644 4.18961 9.49694C3.4372 9.14795 2.51031 9.54494 2.51031 9.54494C2.51031 9.54494 2.80378 10.5074 3.55619 10.8564ZM4.39008 1.48399C3.78516 2.05049 3.80815 3.05598 3.80815 3.05598C3.80815 3.05598 4.81303 3.14398 5.41796 2.57749C6.02288 2.01099 5.99989 1.005 5.99989 1.005C5.99989 1.005 4.99501 0.917496 4.39008 1.48399Z" stroke="#1F2A37" stroke-width="0.5" stroke-linecap="round" stroke-linejoin="round"/>
</svg>
