<svg width="7" height="12" viewBox="0 0 7 12" fill="none" xmlns="http://www.w3.org/2000/svg">
<path d="M4.87714 3.30548C4.98362 4.12648 4.32521 4.88847 4.32521 4.88847C4.32521 4.88847 3.49381 4.31948 3.38732 3.49848C3.28083 2.67699 3.93925 1.91499 3.93925 1.91499C3.93925 1.91499 4.77015 2.48499 4.87714 3.30548ZM5.65854 6.06497C5.31058 6.81646 4.3467 7.11146 4.3467 7.11146C4.3467 7.11146 3.94675 6.18796 4.29471 5.43647C4.64267 4.68497 5.60655 4.38948 5.60655 4.38948C5.60655 4.38948 6.0065 5.31347 5.65854 6.06497ZM5.24809 8.70745C4.58417 9.20395 3.5953 9.00695 3.5953 9.00695C3.5953 9.00695 3.68328 8.00445 4.3472 7.50796C5.01112 7.01146 6 7.20846 6 7.20846C6 7.20846 5.91201 8.21095 5.24809 8.70745ZM3.44381 10.8564C2.69141 11.2054 1.76452 10.8089 1.76452 10.8089C1.76452 10.8089 2.05798 9.84644 2.81039 9.49694C3.5628 9.14795 4.48969 9.54494 4.48969 9.54494C4.48969 9.54494 4.19622 10.5074 3.44381 10.8564ZM2.60992 1.48399C3.21484 2.05049 3.19185 3.05598 3.19185 3.05598C3.19185 3.05598 2.18697 3.14398 1.58204 2.57749C0.977117 2.01099 1.00011 1.005 1.00011 1.005C1.00011 1.005 2.00499 0.917496 2.60992 1.48399Z" stroke="#1F2A37" stroke-width="0.5" stroke-linecap="round" stroke-linejoin="round"/>
</svg>
