<svg width="11" height="11" viewBox="0 0 11 11" fill="none" xmlns="http://www.w3.org/2000/svg">
<path fill-rule="evenodd" clip-rule="evenodd" d="M9.47784 2.62949C9.59501 2.74669 9.66083 2.90564 9.66083 3.07136C9.66083 3.23709 9.59501 3.39603 9.47784 3.51324L4.79325 8.19782C4.73135 8.25974 4.65785 8.30886 4.57695 8.34238C4.49606 8.37589 4.40936 8.39314 4.32179 8.39314C4.23423 8.39314 4.14753 8.37589 4.06664 8.34238C3.98574 8.30886 3.91224 8.25974 3.85034 8.19782L1.52284 5.87074C1.46314 5.81308 1.41553 5.74412 1.38277 5.66787C1.35002 5.59161 1.33278 5.5096 1.33205 5.42661C1.33133 5.34363 1.34715 5.26133 1.37857 5.18452C1.41 5.10771 1.45641 5.03793 1.51509 4.97924C1.57377 4.92056 1.64355 4.87415 1.72037 4.84273C1.79718 4.8113 1.87948 4.79549 1.96246 4.79621C2.04545 4.79693 2.12746 4.81417 2.20371 4.84693C2.27997 4.87968 2.34893 4.9273 2.40659 4.98699L4.32159 6.90199L8.59367 2.62949C8.65171 2.57141 8.72063 2.52534 8.79648 2.4939C8.87234 2.46247 8.95364 2.44629 9.03575 2.44629C9.11786 2.44629 9.19917 2.46247 9.27502 2.4939C9.35088 2.52534 9.4198 2.57141 9.47784 2.62949Z" fill="#E5E7EB"/>
</svg>
