<svg width="33" height="32" viewBox="0 0 33 32" fill="none" xmlns="http://www.w3.org/2000/svg">
<path d="M30.8333 16C30.8333 23.728 24.5683 30 16.8333 30C9.09834 30 2.83334 23.728 2.83334 16C2.83334 8.265 9.09834 2 16.8333 2C24.5683 2 30.8333 8.265 30.8333 16Z" fill="#333333"/>
<path d="M23.3955 12.4574C23.3191 12.502 21.5004 13.4425 21.5004 15.5279C21.5861 17.9061 23.7955 18.7401 23.8333 18.7401C23.7955 18.7847 23.4998 19.8763 22.624 21.0205C21.929 22.0062 21.1576 23 19.9861 23C18.8718 23 18.4718 22.3431 17.1861 22.3431C15.8054 22.3431 15.4147 23 14.3575 23C13.1861 23 12.3575 21.953 11.6246 20.9766C10.6724 19.6986 9.86312 17.6931 9.83455 15.7675C9.8153 14.7471 10.0252 13.744 10.5582 12.8921C11.3103 11.7026 12.6532 10.8952 14.1197 10.8686C15.2433 10.8333 16.2433 11.5875 16.929 11.5875C17.5861 11.5875 18.8147 10.8686 20.2048 10.8686C20.8048 10.8692 22.4048 11.0376 23.3955 12.4574ZM16.8339 10.6649C16.6339 9.73303 17.1861 8.80119 17.7004 8.20677C18.3576 7.48792 19.3954 7 20.2905 7C20.3476 7.93185 19.9855 8.84575 19.3383 9.51136C18.7576 10.2302 17.7576 10.7714 16.8339 10.6649Z" fill="white"/>
</svg>
