<svg width="25" height="24" viewBox="0 0 25 24" fill="none" xmlns="http://www.w3.org/2000/svg">
<path d="M22.6677 12.2331C22.6677 11.3698 22.5962 10.7398 22.4415 10.0864H12.382V13.983H18.2867C18.1677 14.9514 17.5249 16.4097 16.0963 17.3897L16.0762 17.5202L19.2569 19.9349L19.4772 19.9564C21.501 18.1247 22.6677 15.4297 22.6677 12.2331Z" fill="#4285F4"/>
<path d="M12.3807 22.5001C15.2735 22.5001 17.702 21.5667 19.4759 19.9567L16.0949 17.39C15.1902 18.0083 13.9759 18.44 12.3807 18.44C9.54736 18.44 7.14263 16.6083 6.28541 14.0767L6.15976 14.0871L2.8525 16.5955L2.80925 16.7133C4.57113 20.1433 8.19017 22.5001 12.3807 22.5001Z" fill="#34A853"/>
<path d="M6.28713 14.0767C6.06095 13.4234 5.93005 12.7233 5.93005 12C5.93005 11.2767 6.06095 10.5767 6.27523 9.92337L6.26924 9.78423L2.92053 7.2356L2.81097 7.28667C2.08481 8.71002 1.66814 10.3084 1.66814 12C1.66814 13.6917 2.08481 15.29 2.81097 16.7133L6.28713 14.0767Z" fill="#FBBC05"/>
<path d="M12.3807 5.55997C14.3926 5.55997 15.7497 6.41163 16.5236 7.12335L19.5474 4.23C17.6903 2.53834 15.2735 1.5 12.3807 1.5C8.1902 1.5 4.57114 3.85665 2.80925 7.28662L6.27353 9.92332C7.14265 7.39166 9.5474 5.55997 12.3807 5.55997Z" fill="#EB4335"/>
</svg>
