<svg width="24" height="24" viewBox="0 0 24 24" fill="none" xmlns="http://www.w3.org/2000/svg">
<rect width="24" height="24" rx="12" transform="matrix(0 -1 -1 0 24 24)" fill="white"/>
<path d="M14.5607 11.9681L11.7393 14.7895C11.6092 14.9242 11.5372 15.1046 11.5388 15.2919C11.5404 15.4792 11.6155 15.6584 11.748 15.7908C11.8804 15.9232 12.0596 15.9983 12.2468 16C12.4341 16.0016 12.6146 15.9296 12.7493 15.7995L16.79 11.7588C16.8565 11.6926 16.9094 11.6139 16.9454 11.5273C16.9814 11.4406 17 11.3477 17 11.2538C17 11.1599 16.9814 11.067 16.9454 10.9803C16.9094 10.8937 16.8565 10.815 16.79 10.7488L12.7493 6.70809C12.614 6.58119 12.4346 6.51192 12.2491 6.51493C12.0636 6.51794 11.8866 6.593 11.7554 6.72423C11.6243 6.85545 11.5494 7.03254 11.5465 7.21803C11.5436 7.40352 11.613 7.58285 11.74 7.71808L14.5614 10.5395H7.71428C7.52484 10.5395 7.34316 10.6148 7.20921 10.7487C7.07525 10.8827 7 11.0643 7 11.2538C7 11.4432 7.07525 11.6249 7.20921 11.7589C7.34316 11.8928 7.52484 11.9681 7.71428 11.9681H14.5607Z" fill="black"/>
</svg>
