<svg width="38" height="30" viewBox="0 0 38 30" fill="none" xmlns="http://www.w3.org/2000/svg">
<path d="M37.3251 15.4265L33.7445 19.0254C33.6891 19.0812 33.6233 19.1254 33.5508 19.1556C33.4784 19.1858 33.4007 19.2013 33.3223 19.2013C33.2439 19.2013 33.1662 19.1858 33.0938 19.1556C33.0214 19.1254 32.9555 19.0812 32.9001 19.0254L29.3195 15.4265C29.2641 15.3707 29.2201 15.3046 29.1901 15.2318C29.1601 15.1589 29.1446 15.0809 29.1446 15.0021C29.1446 14.9233 29.1601 14.8452 29.1901 14.7724C29.2201 14.6996 29.2641 14.6334 29.3195 14.5777C29.375 14.522 29.4408 14.4778 29.5132 14.4476C29.5857 14.4175 29.6633 14.4019 29.7417 14.4019C29.8202 14.4019 29.8978 14.4175 29.9702 14.4476C30.0427 14.4778 30.1085 14.522 30.164 14.5777L32.7256 17.1524V15.0021C32.7264 12.0813 31.805 9.23564 30.094 6.87486C28.383 4.51408 25.9707 2.76003 23.2045 1.86531C20.4384 0.970599 17.461 0.981391 14.7013 1.89614C11.9416 2.81088 9.542 4.58238 7.84798 6.9555C7.75539 7.08475 7.61551 7.17175 7.45911 7.19734C7.30271 7.22293 7.1426 7.18502 7.01401 7.09196C6.88541 6.9989 6.79886 6.8583 6.7734 6.7011C6.74794 6.5439 6.78565 6.38297 6.87824 6.25371C8.71967 3.67408 11.3282 1.74848 14.328 0.754238C17.3279 -0.240002 20.5643 -0.251564 23.5711 0.721218C26.578 1.694 29.2 3.60092 31.0596 6.16732C32.9193 8.73373 33.9205 11.8272 33.9191 15.0021V17.1524L36.4807 14.5777C36.5361 14.522 36.602 14.4778 36.6744 14.4476C36.7468 14.4175 36.8245 14.4019 36.9029 14.4019C36.9813 14.4019 37.059 14.4175 37.1314 14.4476C37.2038 14.4778 37.2697 14.522 37.3251 14.5777C37.3806 14.6334 37.4245 14.6996 37.4545 14.7724C37.4846 14.8452 37.5 14.9233 37.5 15.0021C37.5 15.0809 37.4846 15.1589 37.4545 15.2318C37.4245 15.3046 37.3806 15.3707 37.3251 15.4265ZM31.1188 23.7505C29.2769 26.3288 26.6686 28.2532 23.6693 29.2466C20.67 30.2401 17.4344 30.2513 14.4284 29.2786C11.4224 28.306 8.80092 26.3997 6.94145 23.8342C5.08198 21.2686 4.08041 18.1762 4.08091 15.0021V12.8517L1.51931 15.4265C1.40733 15.539 1.25545 15.6022 1.0971 15.6022C0.938736 15.6022 0.786862 15.539 0.674885 15.4265C0.562908 15.3139 0.5 15.1613 0.5 15.0021C0.5 14.8429 0.562908 14.6903 0.674885 14.5777L4.25547 10.9788C4.31089 10.923 4.37671 10.8788 4.44915 10.8486C4.5216 10.8184 4.59925 10.8029 4.67768 10.8029C4.7561 10.8029 4.83376 10.8184 4.9062 10.8486C4.97865 10.8788 5.04446 10.923 5.09989 10.9788L8.68047 14.5777C8.79245 14.6903 8.85535 14.8429 8.85535 15.0021C8.85535 15.1613 8.79244 15.3139 8.68047 15.4265C8.56849 15.539 8.41662 15.6022 8.25826 15.6022C8.0999 15.6022 7.94802 15.539 7.83605 15.4265L5.27444 12.8517V15.0021C5.27333 16.8083 5.62626 18.597 6.31307 20.2661C6.99988 21.9352 8.00711 23.4519 9.27723 24.7297C10.7596 22.2383 13.1364 20.4135 15.9177 19.6312C14.6246 18.94 13.5986 17.8339 13.003 16.489C12.4073 15.1441 12.2763 13.6377 12.6307 12.2093C12.985 10.7809 13.8045 9.51266 14.9587 8.60635C16.1128 7.70005 17.5354 7.20773 19 7.20773C20.4646 7.20773 21.8872 7.70005 23.0413 8.60635C24.1955 9.51266 25.015 10.7809 25.3693 12.2093C25.7237 13.6377 25.5927 15.1441 24.997 16.489C24.4014 17.8339 23.3754 18.94 22.0823 19.6312C24.8661 20.4153 27.2439 22.2442 28.7243 24.7402C29.2443 24.2181 29.7213 23.6544 30.1505 23.0547C30.2431 22.9256 30.3829 22.8388 30.5392 22.8134C30.6954 22.7879 30.8554 22.8259 30.9838 22.919C31.1122 23.012 31.1985 23.1526 31.2238 23.3096C31.2492 23.4667 31.2114 23.6274 31.1188 23.7565V23.7505ZM19 19.2008C20.0623 19.2008 21.1007 18.8842 21.9839 18.291C22.8671 17.6979 23.5555 16.8547 23.962 15.8683C24.3685 14.8819 24.4749 13.7965 24.2677 12.7493C24.0604 11.7021 23.5489 10.7402 22.7978 9.98522C22.0466 9.23024 21.0897 8.71609 20.0478 8.50779C19.006 8.2995 17.9261 8.4064 16.9447 8.81499C15.9633 9.22358 15.1244 9.91551 14.5343 10.8033C13.9441 11.691 13.6291 12.7347 13.6291 13.8024C13.6291 15.2342 14.195 16.6073 15.2022 17.6197C16.2095 18.6321 17.5756 19.2008 19 19.2008ZM19 28.798C22.2274 28.7932 25.3505 27.6483 27.8231 25.5634C26.9378 23.9959 25.6549 22.6923 24.1051 21.7854C22.5553 20.8785 20.7941 20.4007 19.0007 20.4007C17.2074 20.4007 15.4462 20.8785 13.8964 21.7854C12.3466 22.6923 11.0637 23.9959 10.1783 25.5634C12.6462 27.6555 15.7716 28.8015 19 28.798Z" fill="#3F83F8"/>
</svg>
