<svg width="30" height="24" viewBox="0 0 30 24" fill="none" xmlns="http://www.w3.org/2000/svg">
<path d="M29.5267 3.69551L26.3129 0.481129C26.1636 0.328627 25.9862 0.207626 25.7909 0.125063C25.5956 0.0424999 25.3862 0 25.1747 0C24.9632 0 24.7538 0.0424999 24.5585 0.125063C24.3631 0.207626 24.1858 0.328627 24.0365 0.481129L11.2522 13.3386L5.96286 8.11494C5.81358 7.96244 5.63619 7.84143 5.44087 7.75887C5.24554 7.67631 5.03613 7.63381 4.82464 7.63381C4.61315 7.63381 4.40374 7.67631 4.20842 7.75887C4.0131 7.84143 3.83571 7.96244 3.68642 8.11494L0.472624 11.3866C0.322819 11.5385 0.203956 11.7191 0.122852 11.918C0.0417489 12.1168 0 12.33 0 12.5453C0 12.7606 0.0417489 12.9737 0.122852 13.1726C0.203956 13.3714 0.322819 13.552 0.472624 13.704L10.0618 23.5189C10.2111 23.6714 10.3885 23.7924 10.5838 23.8749C10.7791 23.9575 10.9885 24 11.2 24C11.4115 24 11.6209 23.9575 11.8162 23.8749C12.0116 23.7924 12.189 23.6714 12.3382 23.5189L29.5294 6.01155C29.6788 5.85942 29.7973 5.67878 29.8781 5.47998C29.9588 5.28117 30.0002 5.0681 30 4.85296C29.9998 4.63783 29.9578 4.42486 29.8766 4.22624C29.7954 4.02763 29.6765 3.84728 29.5267 3.69551ZM28.7728 5.24135L11.5776 22.7446C11.4772 22.8466 11.3412 22.9038 11.1993 22.9038C11.0575 22.9038 10.9215 22.8466 10.8211 22.7446L1.23188 12.9297C1.18208 12.879 1.14258 12.8189 1.11562 12.7527C1.08866 12.6865 1.07479 12.6156 1.07479 12.5439C1.07479 12.4723 1.08866 12.4013 1.11562 12.3351C1.14258 12.2689 1.18208 12.2088 1.23188 12.1581L4.44568 8.8865C4.4952 8.83551 4.55423 8.79513 4.61932 8.76774C4.6844 8.74035 4.75422 8.7265 4.82464 8.72701C4.97001 8.72766 5.10918 8.78698 5.21164 8.89195L10.8827 14.4919C10.9827 14.5914 11.1171 14.6471 11.2569 14.6471C11.3968 14.6471 11.5311 14.5914 11.6312 14.4919L24.8038 1.25542C24.8536 1.20431 24.9128 1.16374 24.9781 1.13606C25.0433 1.10838 25.1133 1.09412 25.1841 1.09412C25.2548 1.09412 25.3248 1.10838 25.3901 1.13606C25.4553 1.16374 25.5146 1.20431 25.5644 1.25542L28.7782 4.46979C28.8276 4.52079 28.8667 4.58121 28.8932 4.6476C28.9197 4.71399 28.9331 4.78505 28.9326 4.8567C28.9321 4.92836 28.9177 4.99922 28.8903 5.06522C28.8629 5.13122 28.823 5.19107 28.7728 5.24135Z" fill="#3F83F8"/>
</svg>
