<svg width="66" height="8" viewBox="0 0 66 8" fill="none" xmlns="http://www.w3.org/2000/svg">
<path d="M2.11759 7.64721C1.62625 7.4051 1.22488 7.09036 0.91347 6.70298C0.602059 6.30869 0.370232 5.88673 0.217987 5.43709C0.0726624 4.98054 0 4.53783 0 4.10895V3.88067C0 3.41029 0.0761225 2.94682 0.228367 2.49027C0.380612 2.0268 0.61244 1.6083 0.92385 1.23476C1.24218 0.861219 1.64009 0.56377 2.11759 0.342412C2.602 0.114137 3.17292 0 3.83034 0C4.51545 0 5.12097 0.127972 5.6469 0.383917C6.17284 0.639862 6.59151 0.996109 6.90292 1.45266C7.22125 1.90229 7.4081 2.43147 7.46346 3.04021H5.75071C5.70226 2.73584 5.59154 2.47644 5.41853 2.262C5.24553 2.04756 5.02062 1.88154 4.74381 1.76394C4.47392 1.64635 4.16944 1.58755 3.83034 1.58755C3.49125 1.58755 3.19022 1.64635 2.92725 1.76394C2.66429 1.88154 2.44284 2.04756 2.26291 2.262C2.08991 2.47644 1.95496 2.73238 1.85808 3.02983C1.76812 3.32036 1.72314 3.64548 1.72314 4.00519C1.72314 4.35798 1.76812 4.68309 1.85808 4.98054C1.95496 5.27108 2.09337 5.52702 2.27329 5.74838C2.46014 5.96282 2.68851 6.12884 2.9584 6.24643C3.22828 6.35711 3.53623 6.41245 3.88225 6.41245C4.40818 6.41245 4.85108 6.28448 5.21093 6.02853C5.5777 5.77259 5.79915 5.4198 5.87527 4.97017H7.57765C7.51536 5.52356 7.32852 6.03199 7.01711 6.49546C6.71262 6.95201 6.29394 7.31863 5.76109 7.59533C5.23515 7.86511 4.60887 8 3.88225 8C3.19714 8 2.60892 7.8824 2.11759 7.64721Z" fill="#111928"/>
<path fill-rule="evenodd" clip-rule="evenodd" d="M12.3402 8C11.6551 8 11.0565 7.8824 10.5444 7.64721C10.0392 7.4051 9.62054 7.09036 9.28837 6.70298C8.9562 6.30869 8.70707 5.88327 8.54099 5.42672C8.38182 4.97017 8.30224 4.53091 8.30224 4.10895V3.88067C8.30224 3.41029 8.38528 2.94682 8.55137 2.49027C8.72437 2.0268 8.98042 1.6083 9.31951 1.23476C9.6586 0.861219 10.0807 0.56377 10.5859 0.342412C11.0911 0.114137 11.6758 0 12.3402 0C13.0045 0 13.5893 0.114137 14.0945 0.342412C14.5996 0.56377 15.0218 0.861219 15.3609 1.23476C15.7 1.6083 15.956 2.0268 16.129 2.49027C16.302 2.94682 16.3885 3.41029 16.3885 3.88067V4.10895C16.3885 4.53091 16.3055 4.97017 16.1394 5.42672C15.9733 5.88327 15.7242 6.30869 15.392 6.70298C15.0598 7.09036 14.6377 7.4051 14.1256 7.64721C13.6204 7.8824 13.0253 8 12.3402 8ZM12.3402 6.41245C12.7 6.41245 13.0218 6.35019 13.3056 6.22568C13.5962 6.10117 13.8419 5.92823 14.0426 5.70687C14.2502 5.48552 14.4059 5.22957 14.5097 4.93904C14.6135 4.64851 14.6654 4.33722 14.6654 4.00519C14.6654 3.6524 14.61 3.33074 14.4993 3.04021C14.3955 2.74276 14.2398 2.48681 14.0322 2.27237C13.8315 2.05102 13.5893 1.88154 13.3056 1.76394C13.0218 1.64635 12.7 1.58755 12.3402 1.58755C11.9803 1.58755 11.6585 1.64635 11.3748 1.76394C11.0911 1.88154 10.8454 2.05102 10.6378 2.27237C10.4371 2.48681 10.2849 2.74276 10.1811 3.04021C10.0773 3.33074 10.0254 3.6524 10.0254 4.00519C10.0254 4.33722 10.0773 4.64851 10.1811 4.93904C10.2849 5.22957 10.4371 5.48552 10.6378 5.70687C10.8454 5.92823 11.0911 6.10117 11.3748 6.22568C11.6585 6.35019 11.9803 6.41245 12.3402 6.41245Z" fill="#111928"/>
<path d="M17.6784 0.228275V7.80285H19.2562V1.6083H19.4015L22.2561 7.80285H25.0692V1.6083H25.1669L28.0215 7.80285H30.8346V0.228275H29.236V6.42283H29.0907L26.2361 0.228275H23.4438V6.42283H23.3253L20.4707 0.228275H17.6784Z" fill="#111928"/>
<path fill-rule="evenodd" clip-rule="evenodd" d="M53.271 8C52.5859 8 51.9873 7.8824 51.4752 7.64721C50.9701 7.4051 50.5514 7.09036 50.2192 6.70298C49.887 6.30869 49.6379 5.88327 49.4718 5.42672C49.3127 4.97017 49.2331 4.53091 49.2331 4.10895V3.88067C49.2331 3.41029 49.3161 2.94682 49.4822 2.49027C49.6552 2.0268 49.9113 1.6083 50.2504 1.23476C50.5894 0.861219 51.0116 0.56377 51.5168 0.342412C52.0219 0.114137 52.6067 0 53.271 0C53.9354 0 54.5201 0.114137 55.0253 0.342412C55.5305 0.56377 55.9526 0.861219 56.2917 1.23476C56.6308 1.6083 56.8868 2.0268 57.0599 2.49027C57.2329 2.94682 57.3194 3.41029 57.3194 3.88067V4.10895C57.3194 4.53091 57.2363 4.97017 57.0702 5.42672C56.9042 5.88327 56.655 6.30869 56.3229 6.70298C55.9907 7.09036 55.5686 7.4051 55.0564 7.64721C54.5513 7.8824 53.9561 8 53.271 8ZM53.271 6.41245C53.6309 6.41245 53.9527 6.35019 54.2364 6.22568C54.5271 6.10117 54.7727 5.92823 54.9734 5.70687C55.181 5.48552 55.3367 5.22957 55.4405 4.93904C55.5443 4.64851 55.5962 4.33722 55.5962 4.00519C55.5962 3.6524 55.5409 3.33074 55.4301 3.04021C55.3263 2.74276 55.1706 2.48681 54.963 2.27237C54.7623 2.05102 54.5201 1.88154 54.2364 1.76394C53.9527 1.64635 53.6309 1.58755 53.271 1.58755C52.9112 1.58755 52.5894 1.64635 52.3057 1.76394C52.0219 1.88154 51.7763 2.05102 51.5687 2.27237C51.368 2.48681 51.2157 2.74276 51.1119 3.04021C51.0081 3.33074 50.9562 3.6524 50.9562 4.00519C50.9562 4.33722 51.0081 4.64851 51.1119 4.93904C51.2157 5.22957 51.368 5.48552 51.5687 5.70687C51.7763 5.92823 52.0219 6.10117 52.3057 6.22568C52.5894 6.35019 52.9112 6.41245 53.271 6.41245Z" fill="#111928"/>
<path d="M32.5367 0.228275V7.80285H37.3013V6.3917H34.1976V4.65888H37.0625V3.24773H34.1976V1.63943H37.2286V0.228275H32.5367Z" fill="#111928"/>
<path d="M37.9423 7.80285L40.4808 3.83872L38.1603 0.228275H40.0287L41.5027 2.59403H41.7415L43.1947 0.228275H45.0113L42.6524 3.90295L45.25 7.80285H43.3712L41.6481 5.12581H41.3989L39.7588 7.80285H37.9423Z" fill="#111928"/>
<path d="M46.2121 0.228275V7.80285H47.9145V0.228275H46.2121Z" fill="#111928"/>
<path d="M58.6092 0.228275V7.80285H60.187V1.6083H60.3323L63.1869 7.80285H66V0.228275H64.4014V6.42283H64.2561L61.4015 0.228275H58.6092Z" fill="#111928"/>
</svg>
