<svg width="40" height="33" viewBox="0 0 40 33" fill="none" xmlns="http://www.w3.org/2000/svg">
<path d="M38.8669 11.631L29.6794 1.13102C29.618 1.06072 29.5424 1.0043 29.4575 0.965546C29.3727 0.926788 29.2805 0.906573 29.1872 0.90625H10.8122C10.7189 0.906573 10.6267 0.926788 10.5419 0.965546C10.457 1.0043 10.3814 1.06072 10.32 1.13102L1.13252 11.631C1.02569 11.7534 0.968068 11.9111 0.970796 12.0735C0.973523 12.236 1.03641 12.3916 1.14729 12.5104L19.5223 32.1979C19.5837 32.2635 19.6579 32.3157 19.7403 32.3515C19.8227 32.3872 19.9115 32.4056 20.0013 32.4056C20.0912 32.4056 20.18 32.3872 20.2624 32.3515C20.3448 32.3157 20.419 32.2635 20.4804 32.1979L38.8554 12.5104C38.9658 12.3912 39.0281 12.2354 39.0302 12.0729C39.0324 11.9105 38.9742 11.753 38.8669 11.631ZM11.6801 12.7188L18.09 28.7411L3.13408 12.7188H11.6801ZM26.9051 12.7188L19.9997 29.983L13.0943 12.7188H26.9051ZM13.4372 11.4062L19.9997 2.6568L26.5622 11.4062H13.4372ZM28.3193 12.7188H36.8653L21.9094 28.7411L28.3193 12.7188ZM36.9277 11.4062H28.2028L21.3122 2.21875H28.8886L36.9277 11.4062ZM11.1108 2.21875H18.6872L11.7966 11.4062H3.07174L11.1108 2.21875Z" fill="#6B7280"/>
</svg>
