<svg width="30" height="30" viewBox="0 0 30 30" fill="none" xmlns="http://www.w3.org/2000/svg">
<path d="M28.1916 11.8852C27.636 11.3018 27.0526 10.6988 26.8026 10.107C26.5735 9.55126 26.5623 8.783 26.5498 7.9661C26.5304 6.71575 26.5096 5.30008 25.6012 4.39011C24.6928 3.48013 23.2761 3.46068 22.026 3.44123C21.2093 3.42873 20.4384 3.41762 19.8856 3.18839C19.2939 2.94387 18.6911 2.36455 18.1078 1.80606C17.18 0.915532 16.2202 0 14.9938 0C13.7673 0 12.8075 0.9197 11.8797 1.80606C11.2964 2.36177 10.6936 2.94526 10.1019 3.19533C9.54628 3.42456 8.77818 3.43568 7.96148 3.44818C6.71142 3.46763 5.29608 3.48847 4.38631 4.39705C3.47655 5.30564 3.45988 6.71575 3.44044 7.9661C3.42794 8.783 3.41682 9.55404 3.18765 10.107C2.94319 10.6988 2.364 11.3018 1.80564 11.8852C0.91532 12.8133 0 13.7733 0 15C0 16.2267 0.919487 17.1867 1.80564 18.1148C2.36122 18.6982 2.94458 19.3012 3.19459 19.893C3.42377 20.4487 3.43488 21.217 3.44738 22.0339C3.46683 23.2842 3.48766 24.6999 4.39604 25.6099C5.30441 26.5199 6.72114 26.5393 7.9712 26.5588C8.78791 26.5713 9.55878 26.5824 10.1116 26.8116C10.7033 27.0561 11.3061 27.6355 11.8894 28.1939C12.8173 29.0845 13.777 30 15.0035 30C16.2299 30 17.1897 29.0803 18.1175 28.1939C18.7009 27.6382 19.3037 27.0547 19.8954 26.8047C20.4509 26.5754 21.219 26.5643 22.0357 26.5518C23.2858 26.5324 24.7011 26.5115 25.6109 25.6029C26.5207 24.6944 26.5401 23.2773 26.5596 22.027C26.5721 21.2101 26.5832 20.439 26.8124 19.8861C27.0568 19.2942 27.636 18.6913 28.1944 18.1078C29.0847 17.1798 30 16.2198 30 14.9931C30 13.7663 29.0777 12.8133 28.1916 11.8852ZM27.3888 17.3451C26.7582 18.0022 26.1054 18.683 25.7817 19.4679C25.472 20.2167 25.4581 21.135 25.4442 22.0172C25.4276 23.1564 25.4109 24.2401 24.8206 24.8236C24.2303 25.4071 23.1538 25.4307 22.0149 25.4473C21.1301 25.4612 20.2093 25.4751 19.4662 25.7849C18.6814 26.1086 18.0008 26.7574 17.3439 27.3923C16.5369 28.1634 15.7771 28.8927 14.9965 28.8927C14.2159 28.8927 13.4562 28.1634 12.652 27.3923C11.995 26.7616 11.3144 26.1086 10.5297 25.7849C9.78101 25.4751 8.86291 25.4612 7.98092 25.4473C6.84198 25.4307 5.76554 25.414 5.17524 24.8236C4.58493 24.2331 4.56827 23.1564 4.5516 22.0172C4.53771 21.1323 4.52382 20.2112 4.21408 19.4679C3.89046 18.683 3.24182 18.0022 2.60706 17.3451C1.8362 16.5407 1.107 15.7808 1.107 15C1.107 14.2192 1.8362 13.4593 2.60706 12.6549C3.23765 11.9978 3.89046 11.317 4.21408 10.5321C4.52382 9.78327 4.53771 8.86496 4.5516 7.98277C4.56827 6.84357 4.58493 5.76688 5.17524 5.17644C5.76554 4.586 6.84198 4.56932 7.98092 4.55265C8.86569 4.53876 9.78656 4.52487 10.5297 4.21506C11.3144 3.89136 11.995 3.24257 12.652 2.60767C13.4562 1.83662 14.2159 1.10725 14.9965 1.10725C15.7771 1.10725 16.5369 1.83662 17.3411 2.60767C17.9981 3.2384 18.6786 3.89136 19.4634 4.21506C20.212 4.52487 21.1301 4.53876 22.0121 4.55265C23.1511 4.56932 24.2345 4.586 24.8178 5.17644C25.4012 5.76688 25.4248 6.84357 25.4415 7.98277C25.4553 8.86774 25.4692 9.78883 25.779 10.5321C26.1026 11.317 26.7512 11.9978 27.386 12.6549C28.1569 13.4593 28.8861 14.2192 28.8861 15C28.8861 15.7808 28.1569 16.5407 27.386 17.3451H27.3888ZM20.9482 11.2726C20.9998 11.3242 21.0408 11.3855 21.0688 11.4529C21.0967 11.5204 21.1111 11.5927 21.1111 11.6657C21.1111 11.7388 21.0967 11.8111 21.0688 11.8785C21.0408 11.946 20.9998 12.0073 20.9482 12.0589L13.1701 19.8388C13.1185 19.8905 13.0572 19.9315 12.9897 19.9595C12.9223 19.9874 12.85 20.0018 12.777 20.0018C12.704 20.0018 12.6317 19.9874 12.5642 19.9595C12.4968 19.9315 12.4355 19.8905 12.3839 19.8388L9.05042 16.5046C8.94617 16.4003 8.8876 16.2589 8.8876 16.1114C8.8876 15.964 8.94617 15.8225 9.05042 15.7183C9.15467 15.614 9.29606 15.5554 9.44349 15.5554C9.59092 15.5554 9.73232 15.614 9.83657 15.7183L12.7742 18.6593L20.1593 11.2726C20.2109 11.2209 20.2721 11.1799 20.3396 11.152C20.407 11.124 20.4793 11.1096 20.5523 11.1096C20.6254 11.1096 20.6976 11.124 20.7651 11.152C20.8325 11.1799 20.8938 11.2209 20.9454 11.2726H20.9482Z" fill="#3F83F8"/>
</svg>
