<svg width="25" height="17" viewBox="0 0 25 17" fill="none" xmlns="http://www.w3.org/2000/svg">
<path d="M24.5072 6.11682L22.1147 1.32995C22.0266 1.15376 21.9046 0.99666 21.7557 0.867619C21.6069 0.738577 21.4341 0.640123 21.2471 0.577877C21.0602 0.515631 20.8629 0.490814 20.6664 0.504842C20.4699 0.51887 20.2781 0.57147 20.1019 0.659636L17.7703 1.82495L12.8588 0.525573C12.7327 0.492778 12.6004 0.492778 12.4744 0.525573L7.56284 1.82495L5.23127 0.659636C5.0551 0.57147 4.86328 0.51887 4.66678 0.504842C4.47028 0.490814 4.27294 0.515631 4.08602 0.577877C3.89911 0.640123 3.72629 0.738577 3.57744 0.867619C3.42858 0.99666 3.3066 1.15376 3.21846 1.32995L0.82596 6.11589C0.737794 6.29206 0.685195 6.48387 0.671166 6.68038C0.657138 6.87688 0.681955 7.07422 0.744201 7.26113C0.806447 7.44805 0.904902 7.62086 1.03394 7.76972C1.16298 7.91858 1.32008 8.04056 1.49627 8.1287L4.02752 9.39526L9.22971 13.1106C9.30637 13.1651 9.39253 13.2049 9.48377 13.2278L15.4838 14.7278C15.6094 14.7593 15.7411 14.7577 15.866 14.7232C15.9908 14.6887 16.1046 14.6224 16.1963 14.5309L21.3591 9.36714L23.836 8.1287C24.1915 7.95069 24.4619 7.63878 24.5876 7.26152C24.7133 6.88426 24.684 6.47253 24.5063 6.11682H24.5072ZM19.3613 9.24526L16.1353 6.66151C15.9908 6.54577 15.8086 6.48758 15.6237 6.49814C15.4389 6.5087 15.2645 6.58726 15.1341 6.7187C13.4644 8.40057 11.6035 8.18776 10.4166 7.43776L14.4703 3.50026H17.4525L20.0035 8.6012L19.3613 9.24526ZM4.56002 2.00026L6.47909 2.95839L4.0819 7.74432L2.16659 6.78714L4.56002 2.00026ZM15.435 13.1687L9.98721 11.8074L5.37471 8.51307L7.99971 3.26307L12.6666 2.02651L13.5853 2.26932L9.36659 6.36432L9.35909 6.37276C9.20028 6.53157 9.07916 6.72401 9.00466 6.93588C8.93017 7.14775 8.9042 7.37365 8.92868 7.5969C8.95315 7.82014 9.02745 8.03505 9.14608 8.22575C9.26471 8.41645 9.42464 8.57807 9.61409 8.6987C11.5416 9.92964 13.8675 9.72995 15.6994 8.22995L18.2916 10.3121L15.435 13.1687ZM21.2475 7.74339L18.855 2.96214L20.7731 2.00026L23.1666 6.78714L21.2475 7.74339ZM13.021 16.4312C12.9804 16.5933 12.887 16.7372 12.7553 16.8401C12.6237 16.9431 12.4615 16.9991 12.2944 16.9993C12.2328 16.9992 12.1714 16.9917 12.1116 16.9768L8.20502 15.9999C8.11365 15.9774 8.02742 15.9376 7.95096 15.8828L5.48065 14.1184C5.32876 13.9991 5.22872 13.8259 5.20137 13.6347C5.17402 13.4435 5.22147 13.2492 5.33383 13.0921C5.44619 12.9351 5.61481 12.8274 5.80456 12.7915C5.99432 12.7557 6.1906 12.7944 6.35252 12.8996L8.70659 14.5815L12.4791 15.5228C12.672 15.571 12.8379 15.6939 12.9402 15.8645C13.0425 16.035 13.0729 16.2392 13.0247 16.4321L13.021 16.4312Z" fill="black"/>
</svg>
