<svg width="42" height="29" viewBox="0 0 42 29" fill="none" xmlns="http://www.w3.org/2000/svg">
<path d="M41.1348 9.9959L36.9463 1.62871C36.8307 1.39741 36.6707 1.19114 36.4754 1.02168C36.2801 0.852227 36.0533 0.722899 35.8081 0.641087C35.5628 0.559275 35.3038 0.526582 35.0459 0.544874C34.7879 0.563166 34.5361 0.632085 34.3049 0.747695L30.0031 2.89035L21.1635 0.554102C21.0559 0.52558 20.9428 0.52558 20.8353 0.554102L11.9956 2.89035L7.69393 0.739492C7.46265 0.623882 7.21086 0.554963 6.95294 0.536671C6.69502 0.518379 6.43602 0.551072 6.19074 0.632884C5.94545 0.714696 5.71869 0.844023 5.52339 1.01348C5.3281 1.18294 5.16809 1.38921 5.05252 1.62051L0.864004 9.9959C0.748394 10.2272 0.679475 10.479 0.661183 10.7369C0.642891 10.9948 0.675584 11.2538 0.757396 11.4991C0.839208 11.7444 0.968535 11.9711 1.13799 12.1664C1.30745 12.3617 1.51372 12.5217 1.74502 12.6373L6.22229 14.8768L15.3688 21.4097C15.4354 21.4575 15.5106 21.492 15.5903 21.5114L26.0903 24.1364C26.1995 24.1651 26.3143 24.165 26.4235 24.1362C26.5327 24.1075 26.6327 24.0511 26.7137 23.9724L35.8257 14.8604L40.2554 12.6455C40.4867 12.5299 40.693 12.3699 40.8624 12.1746C41.0319 11.9793 41.1612 11.7526 41.243 11.5073C41.3248 11.262 41.3575 11.003 41.3392 10.7451C41.321 10.4872 41.252 10.2354 41.1364 10.0041L41.1348 9.9959ZM32.7676 16.058L26.6645 11.1689C26.5381 11.0676 26.3787 11.0165 26.217 11.0256C26.0553 11.0347 25.9026 11.1033 25.7884 11.2182C22.5908 14.4404 19.006 14.0253 16.7174 12.5635C16.6331 12.5094 16.5621 12.4371 16.5096 12.3519C16.457 12.2667 16.4243 12.1708 16.4138 12.0713C16.4026 11.9755 16.4132 11.8783 16.4447 11.7872C16.4763 11.696 16.528 11.6131 16.596 11.5446L23.8902 4.46863H29.7817L34.6379 14.1828L32.7676 16.058ZM2.0026 11.0836C1.95013 10.9211 1.96308 10.7446 2.03869 10.5914L6.23377 2.20785C6.2876 2.09951 6.37033 2.00815 6.47282 1.94388C6.57531 1.8796 6.69358 1.84491 6.81455 1.84363C6.91604 1.84425 7.016 1.8684 7.10658 1.91418L11.0441 3.88293L6.26822 13.433L2.33072 11.4643C2.25371 11.4255 2.18509 11.3719 2.12878 11.3066C2.07248 11.2413 2.0296 11.1655 2.0026 11.0836ZM26.0476 22.7731L16.0299 20.2679L7.40025 14.104L12.3779 4.14051L20.9994 1.8666L25.8753 3.15613H23.6244C23.4535 3.15597 23.2893 3.22248 23.1667 3.34152L15.669 10.6144C15.4603 10.8231 15.3013 11.076 15.2035 11.3544C15.1058 11.6329 15.0719 11.9297 15.1043 12.223C15.1368 12.5163 15.2347 12.7986 15.391 13.0489C15.5472 13.2992 15.7577 13.5113 16.007 13.6693C19.2685 15.7545 23.247 15.3099 26.2871 12.552L31.8275 16.9915L26.0476 22.7731ZM39.9929 11.0836C39.9659 11.1655 39.923 11.2413 39.8667 11.3066C39.8104 11.3719 39.7418 11.4255 39.6648 11.4643L35.7273 13.433L30.9547 3.88293L34.8922 1.91418C35.0471 1.83875 35.2255 1.82727 35.3888 1.88222C35.5521 1.93716 35.6872 2.05413 35.765 2.20785L39.9535 10.5832C40.0335 10.7378 40.0489 10.9178 39.9962 11.0836H39.9929ZM20.9896 27.6014C20.9531 27.7425 20.8708 27.8674 20.7556 27.9565C20.6403 28.0457 20.4987 28.0939 20.353 28.0936C20.2977 28.094 20.2426 28.0874 20.1889 28.0739L13.3508 26.3628C13.2707 26.3432 13.195 26.3087 13.1277 26.2611L8.80627 23.1718C8.66464 23.0706 8.56899 22.9173 8.54038 22.7456C8.51177 22.5739 8.55253 22.3979 8.65369 22.2563C8.75486 22.1147 8.90814 22.019 9.07983 21.9904C9.25151 21.9618 9.42753 22.0025 9.56916 22.1037L13.7888 25.1175L20.5154 26.7992C20.5994 26.8204 20.6784 26.858 20.7477 26.9099C20.8171 26.9618 20.8755 27.027 20.9196 27.1015C20.9637 27.1761 20.9926 27.2587 21.0046 27.3445C21.0166 27.4303 21.0115 27.5176 20.9896 27.6014Z" fill="#6B7280"/>
</svg>
