<svg width="18" height="17" viewBox="0 0 18 17" fill="none" xmlns="http://www.w3.org/2000/svg">
<path d="M9 16.654L8.242 15.969C6.61 14.4784 5.26 13.2024 4.192 12.141C3.12467 11.079 2.282 10.1424 1.664 9.33102C1.046 8.51969 0.614003 7.78636 0.368003 7.13102C0.122003 6.47569 -0.000663964 5.81536 2.7027e-06 5.15002C2.7027e-06 3.87802 0.432003 2.81002 1.296 1.94602C2.16 1.08202 3.228 0.650024 4.5 0.650024C5.38 0.650024 6.205 0.875024 6.975 1.32502C7.745 1.77502 8.42 2.42969 9 3.28902C9.58 2.42969 10.255 1.77502 11.025 1.32502C11.795 0.875024 12.62 0.650024 13.5 0.650024C14.772 0.650024 15.84 1.08202 16.704 1.94602C17.568 2.81002 18 3.87802 18 5.15002C18 5.81402 17.8773 6.47402 17.632 7.13002C17.386 7.78736 16.954 8.52136 16.336 9.33202C15.718 10.1427 14.8783 11.079 13.817 12.141C12.7557 13.2024 11.4023 14.4784 9.757 15.969L9 16.654ZM9 15.3C10.6 13.8534 11.9167 12.6147 12.95 11.584C13.9833 10.5534 14.8 9.65836 15.4 8.89902C16 8.13969 16.4167 7.46802 16.65 6.88402C16.8833 6.29869 17 5.72069 17 5.15002C17 4.15002 16.6667 3.31669 16 2.65002C15.3333 1.98336 14.5 1.65002 13.5 1.65002C12.704 1.65002 11.9693 1.87736 11.296 2.33202C10.6227 2.78669 10.0207 3.47102 9.49 4.38502H8.512C7.96734 3.45836 7.36167 2.77069 6.695 2.32202C6.02834 1.87402 5.297 1.65002 4.501 1.65002C3.51434 1.65002 2.68434 1.98336 2.011 2.65002C1.33767 3.31669 1.00067 4.15002 1 5.15002C1 5.72069 1.11667 6.29869 1.35 6.88402C1.58334 7.46936 2 8.14103 2.6 8.89902C3.2 9.65703 4.01667 10.5487 5.05 11.574C6.08334 12.5994 7.4 13.8414 9 15.3Z" fill="#D1D5DB"/>
<path d="M9 15.3C10.6 13.8534 11.9167 12.6147 12.95 11.584C13.9833 10.5534 14.8 9.65836 15.4 8.89902C16 8.13969 16.4167 7.46802 16.65 6.88402C16.8833 6.29869 17 5.72069 17 5.15002C17 4.15002 16.6667 3.31669 16 2.65002C15.3333 1.98336 14.5 1.65002 13.5 1.65002C12.704 1.65002 11.9693 1.87736 11.296 2.33202C10.6227 2.78669 10.0207 3.47102 9.49 4.38502H8.512C7.96734 3.45836 7.36167 2.77069 6.695 2.32202C6.02834 1.87402 5.297 1.65002 4.501 1.65002C3.51434 1.65002 2.68434 1.98336 2.011 2.65002C1.33767 3.31669 1.00067 4.15002 1 5.15002C1 5.72069 1.11667 6.29869 1.35 6.88402C1.58334 7.46936 2 8.14103 2.6 8.89902C3.2 9.65703 4.01667 10.5487 5.05 11.574C6.08334 12.5994 7.4 13.8414 9 15.3Z" fill="#D1D5DB"/>
</svg>
