<svg width="39" height="29" viewBox="0 0 39 29" fill="none" xmlns="http://www.w3.org/2000/svg">
<path d="M37.8828 16.1895C37.7331 16.2782 37.5543 16.3038 37.3857 16.2608C37.2171 16.2177 37.0725 16.1094 36.9838 15.9598C35.6171 13.6629 33.5499 12.3504 31.3138 12.3504C31.2468 12.3496 31.1804 12.3385 31.1169 12.3176C30.9098 12.3392 30.7017 12.3502 30.4934 12.3504C30.3194 12.3504 30.1525 12.2812 30.0294 12.1582C29.9063 12.0351 29.8372 11.8682 29.8372 11.6941C29.8372 11.5201 29.9063 11.3532 30.0294 11.2301C30.1525 11.107 30.3194 11.0379 30.4934 11.0379C31.3526 11.0376 32.1944 10.7964 32.9233 10.3417C33.6522 9.88699 34.239 9.23698 34.6171 8.4655C34.9951 7.69402 35.1492 6.83199 35.0619 5.97731C34.9746 5.12264 34.6494 4.30957 34.1232 3.63046C33.597 2.95135 32.8908 2.43341 32.085 2.13547C31.2792 1.83753 30.406 1.77153 29.5646 1.94497C28.7232 2.1184 27.9472 2.52432 27.3249 3.11662C26.7026 3.70892 26.2588 4.46386 26.0441 5.2957C26.0006 5.46431 25.8918 5.60873 25.7418 5.69719C25.5919 5.78564 25.4129 5.81089 25.2443 5.76738C25.0757 5.72387 24.9312 5.61516 24.8428 5.46517C24.7543 5.31517 24.7291 5.13619 24.7726 4.96758C25.0134 4.03373 25.4793 3.17307 26.1294 2.46077C26.7796 1.74848 27.5942 1.20623 28.5023 0.881386C29.4103 0.556546 30.3841 0.459004 31.3385 0.597279C32.293 0.735555 33.199 1.10544 33.9776 1.67463C34.7561 2.24381 35.3834 2.99498 35.8046 3.8625C36.2259 4.73002 36.4284 5.6875 36.3943 6.65129C36.3602 7.61509 36.0906 8.55587 35.6091 9.39146C35.1276 10.227 34.4487 10.932 33.632 11.4448C35.4055 12.0764 36.9969 13.4135 38.1125 15.297C38.1992 15.4461 38.2237 15.6233 38.1807 15.7903C38.1377 15.9573 38.0307 16.1007 37.8828 16.1895ZM29.7552 27.1095C29.842 27.26 29.8656 27.4389 29.8207 27.6069C29.7758 27.7748 29.6661 27.9181 29.5156 28.0052C29.4161 28.0636 29.3028 28.0942 29.1875 28.0938C29.0724 28.0937 28.9594 28.0633 28.8598 28.0057C28.7601 27.9481 28.6774 27.8654 28.6198 27.7657C27.7353 26.2663 26.475 25.0235 24.9633 24.1601C23.4516 23.2967 21.7409 22.8426 20 22.8426C18.2591 22.8426 16.5484 23.2967 15.0367 24.1601C13.525 25.0235 12.2647 26.2663 11.3802 27.7657C11.2894 27.9085 11.1469 28.0108 10.9825 28.051C10.8181 28.0913 10.6445 28.0665 10.4979 27.9818C10.3514 27.8971 10.2432 27.759 10.1961 27.5965C10.1489 27.4339 10.1664 27.2594 10.2448 27.1095C11.6693 24.6634 13.9662 22.8466 16.6745 22.0235C15.2394 21.2787 14.096 20.0737 13.4274 18.6016C12.7588 17.1295 12.6037 15.4755 12.9871 13.9048C13.3704 12.3341 14.27 10.9376 15.5416 9.939C16.8132 8.94043 18.3832 8.39765 20 8.39765C21.6168 8.39765 23.1868 8.94043 24.4584 9.939C25.73 10.9376 26.6296 12.3341 27.0129 13.9048C27.3963 15.4755 27.2412 17.1295 26.5726 18.6016C25.904 20.0737 24.7606 21.2787 23.3256 22.0235C26.0338 22.8466 28.3307 24.6634 29.7552 27.1095ZM20 21.5313C21.1681 21.5313 22.3101 21.1849 23.2813 20.5359C24.2526 19.887 25.0096 18.9645 25.4567 17.8853C25.9037 16.8061 26.0207 15.6185 25.7928 14.4728C25.5649 13.3271 25.0024 12.2747 24.1764 11.4487C23.3503 10.6227 22.298 10.0602 21.1523 9.83231C20.0066 9.60442 18.819 9.72138 17.7398 10.1684C16.6606 10.6154 15.7381 11.3725 15.0891 12.3437C14.4401 13.315 14.0938 14.4569 14.0938 15.6251C14.0938 17.1915 14.716 18.6938 15.8237 19.8014C16.9313 20.9091 18.4336 21.5313 20 21.5313ZM9.5 11.0313C8.64088 11.031 7.79905 10.7899 7.07013 10.3351C6.34121 9.88043 5.75441 9.23042 5.37637 8.45894C4.99834 7.68746 4.84422 6.82543 4.93153 5.97075C5.01884 5.11608 5.34406 4.30301 5.87028 3.6239C6.39649 2.94479 7.1026 2.42685 7.90841 2.12891C8.71421 1.83097 9.58742 1.76497 10.4289 1.93841C11.2703 2.11184 12.0462 2.51776 12.6685 3.11006C13.2909 3.70236 13.7346 4.4573 13.9494 5.28914C13.9929 5.45775 14.1016 5.60217 14.2516 5.69062C14.4016 5.77908 14.5806 5.80433 14.7492 5.76082C14.9178 5.71731 15.0622 5.6086 15.1507 5.4586C15.2391 5.30861 15.2644 5.12962 15.2209 4.96101C14.979 4.02385 14.5106 3.16049 13.8568 2.44686C13.2029 1.73324 12.3838 1.19122 11.4713 0.868509C10.5588 0.545794 9.58101 0.452265 8.62391 0.59615C7.66681 0.740035 6.75973 1.11692 5.98247 1.69366C5.20522 2.2704 4.58161 3.02931 4.1665 3.90363C3.7514 4.77796 3.55752 5.74089 3.60192 6.70773C3.64632 7.67457 3.92765 8.61569 4.42115 9.44828C4.91464 10.2809 5.60519 10.9794 6.43203 11.4825C4.29973 12.1302 2.43103 13.444 1.1 15.2313C0.995574 15.3706 0.950734 15.5456 0.975348 15.7179C0.999962 15.8902 1.09201 16.0456 1.23125 16.1501C1.37049 16.2545 1.54551 16.2993 1.71781 16.2747C1.89011 16.2501 2.04557 16.1581 2.15 16.0188C3.00177 14.8735 4.11064 13.9442 5.38729 13.3059C6.66394 12.6676 8.07268 12.338 9.5 12.3438C9.67405 12.3438 9.84097 12.2747 9.96404 12.1516C10.0871 12.0285 10.1563 11.8616 10.1563 11.6876C10.1563 11.5135 10.0871 11.3466 9.96404 11.2235C9.84097 11.1005 9.67405 11.0313 9.5 11.0313Z" fill="#6B7280"/>
</svg>
