<svg width="29" height="34" viewBox="0 0 29 34" fill="none" xmlns="http://www.w3.org/2000/svg">
<path d="M26.4375 11.0938H15.2812V2.5625C15.2812 2.04036 15.0738 1.5396 14.7046 1.17038C14.3354 0.801171 13.8346 0.59375 13.3125 0.59375H2.8125C2.29036 0.59375 1.7896 0.801171 1.42038 1.17038C1.05117 1.5396 0.84375 2.04036 0.84375 2.5625V10.4375C0.84375 10.9596 1.05117 11.4604 1.42038 11.8296C1.7896 12.1988 2.29036 12.4062 2.8125 12.4062H13.9688V21.5938H2.8125C2.29036 21.5938 1.7896 21.8012 1.42038 22.1704C1.05117 22.5396 0.84375 23.0404 0.84375 23.5625V31.4375C0.84375 31.9596 1.05117 32.4604 1.42038 32.8296C1.7896 33.1988 2.29036 33.4062 2.8125 33.4062H13.3125C13.8346 33.4062 14.3354 33.1988 14.7046 32.8296C15.0738 32.4604 15.2812 31.9596 15.2812 31.4375V22.9062H26.4375C26.9596 22.9062 27.4604 22.6988 27.8296 22.3296C28.1988 21.9604 28.4062 21.4596 28.4062 20.9375V13.0625C28.4062 12.5404 28.1988 12.0396 27.8296 11.6704C27.4604 11.3012 26.9596 11.0938 26.4375 11.0938ZM13.9688 31.4375C13.9688 31.6115 13.8996 31.7785 13.7765 31.9015C13.6535 32.0246 13.4865 32.0938 13.3125 32.0938H2.8125C2.63845 32.0938 2.47153 32.0246 2.34846 31.9015C2.22539 31.7785 2.15625 31.6115 2.15625 31.4375V23.5625C2.15625 23.3885 2.22539 23.2215 2.34846 23.0985C2.47153 22.9754 2.63845 22.9062 2.8125 22.9062H13.9688V31.4375ZM13.9688 11.0938H2.8125C2.63845 11.0938 2.47153 11.0246 2.34846 10.9015C2.22539 10.7785 2.15625 10.6115 2.15625 10.4375V2.5625C2.15625 2.38845 2.22539 2.22153 2.34846 2.09846C2.47153 1.97539 2.63845 1.90625 2.8125 1.90625H13.3125C13.4865 1.90625 13.6535 1.97539 13.7765 2.09846C13.8996 2.22153 13.9688 2.38845 13.9688 2.5625V11.0938ZM27.0938 20.9375C27.0938 21.1115 27.0246 21.2785 26.9015 21.4015C26.7785 21.5246 26.6115 21.5938 26.4375 21.5938H15.2812V12.4062H26.4375C26.6115 12.4062 26.7785 12.4754 26.9015 12.5985C27.0246 12.7215 27.0938 12.8885 27.0938 13.0625V20.9375Z" fill="#6B7280"/>
</svg>
