<svg width="133" height="67" viewBox="0 0 133 67" fill="none" xmlns="http://www.w3.org/2000/svg">
<path d="M8.33934 20.9567C7.92115 24.1805 10.5069 27.1726 10.5069 27.1726C10.5069 27.1726 13.7719 24.9384 14.1901 21.7146C14.6083 18.4888 12.0225 15.4967 12.0225 15.4967C12.0225 15.4967 8.75949 17.7349 8.33934 20.9567ZM5.27064 31.7924C6.63712 34.7433 10.4224 35.9016 10.4224 35.9016C10.4224 35.9016 11.9931 32.2753 10.6266 29.3245C9.26014 26.3736 5.47483 25.2132 5.47483 25.2132C5.47483 25.2132 3.90416 28.8415 5.27064 31.7924ZM6.88254 42.1686C9.48985 44.1182 13.3733 43.3446 13.3733 43.3446C13.3733 43.3446 13.0278 39.4081 10.4205 37.4585C7.81316 35.509 3.92969 36.2825 3.92969 36.2825C3.92969 36.2825 4.27523 40.219 6.88254 42.1686ZM13.9682 50.607C16.923 51.9774 20.563 50.4205 20.563 50.4205C20.563 50.4205 19.4106 46.6411 16.4558 45.2687C13.5009 43.8983 9.86092 45.4572 9.86092 45.4572C9.86092 45.4572 11.0134 49.2366 13.9682 50.607ZM17.2431 13.8043C14.8674 16.0288 14.9577 19.977 14.9577 19.977C14.9577 19.977 18.904 20.3226 21.2797 18.0981C23.6553 15.8737 23.565 11.9234 23.565 11.9234C23.565 11.9234 19.6187 11.5799 17.2431 13.8043Z" stroke="black" stroke-width="0.581565" stroke-linecap="round" stroke-linejoin="round"/>
<path d="M37.5268 25.7578C37.875 24.6862 39.391 24.6862 39.7392 25.7578L40.8744 29.2517C41.0302 29.731 41.4767 30.0554 41.9806 30.0554H45.6544C46.7811 30.0554 47.2496 31.4973 46.338 32.1596L43.3659 34.3189C42.9583 34.6151 42.7877 35.1401 42.9434 35.6193L44.0786 39.1132C44.4268 40.1848 43.2003 41.0759 42.2888 40.4137L39.3167 38.2543C38.909 37.9581 38.357 37.9581 37.9493 38.2543L34.9772 40.4137C34.0657 41.0759 32.8392 40.1848 33.1874 39.1132L34.3226 35.6193C34.4783 35.1401 34.3077 34.6151 33.9001 34.3189L30.928 32.1596C30.0164 31.4973 30.4849 30.0554 31.6116 30.0554H35.2853C35.7892 30.0554 36.2358 29.731 36.3916 29.2517L37.5268 25.7578Z" stroke="black" stroke-width="0.581565"/>
<path d="M65.39 20.2994C65.7318 19.2148 67.2667 19.2148 67.6086 20.2994L69.9161 27.62C70.0699 28.1078 70.5242 28.4379 71.0357 28.4334L78.711 28.3658C79.8482 28.3558 80.3225 29.8155 79.3966 30.4759L73.1474 34.9326C72.731 35.2295 72.5574 35.7637 72.7197 36.2487L75.1559 43.5275C75.5168 44.6059 74.2751 45.5081 73.361 44.8316L67.1912 40.2654C66.7801 39.9611 66.2185 39.9611 65.8074 40.2654L59.6376 44.8316C58.7235 45.5081 57.4818 44.6059 57.8427 43.5275L60.2789 36.2487C60.4412 35.7637 60.2676 35.2295 59.8512 34.9326L53.602 30.4759C52.6761 29.8155 53.1504 28.3558 54.2876 28.3658L61.9629 28.4334C62.4744 28.4379 62.9287 28.1078 63.0825 27.62L65.39 20.2994Z" stroke="black" stroke-width="0.581565"/>
<path d="M93.2592 25.7578C93.6074 24.6862 95.1234 24.6862 95.4716 25.7578L96.6069 29.2517C96.7626 29.731 97.2092 30.0554 97.7131 30.0554H101.387C102.514 30.0554 102.982 31.4973 102.07 32.1596L99.0984 34.3189C98.6907 34.6151 98.5201 35.1401 98.6758 35.6193L99.8111 39.1132C100.159 40.1848 98.9327 41.0759 98.0212 40.4137L95.0491 38.2543C94.6414 37.9581 94.0894 37.9581 93.6817 38.2543L90.7096 40.4137C89.7981 41.0759 88.5716 40.1848 88.9198 39.1132L90.055 35.6193C90.2107 35.1401 90.0401 34.6151 89.6325 34.3189L86.6604 32.1596C85.7488 31.4973 86.2173 30.0554 87.3441 30.0554H91.0178C91.5217 30.0554 91.9683 29.731 92.124 29.2517L93.2592 25.7578Z" stroke="black" stroke-width="0.581565"/>
<path d="M124.657 21.9382C125.075 25.162 122.489 28.1541 122.489 28.1541C122.489 28.1541 119.224 25.9198 118.806 22.696C118.388 19.4703 120.974 16.4781 120.974 16.4781C120.974 16.4781 124.237 18.7163 124.657 21.9382ZM127.725 32.7738C126.359 35.7247 122.574 36.8831 122.574 36.8831C122.574 36.8831 121.003 33.2568 122.369 30.3059C123.736 27.355 127.521 26.1947 127.521 26.1947C127.521 26.1947 129.092 29.8229 127.725 32.7738ZM126.114 43.15C123.506 45.0996 119.623 44.3261 119.623 44.3261C119.623 44.3261 119.968 40.3896 122.576 38.44C125.183 36.4904 129.066 37.264 129.066 37.264C129.066 37.264 128.721 41.2004 126.114 43.15ZM119.028 51.5884C116.073 52.9588 112.433 51.4019 112.433 51.4019C112.433 51.4019 113.586 47.6225 116.54 46.2501C119.495 44.8797 123.135 46.4386 123.135 46.4386C123.135 46.4386 121.983 50.218 119.028 51.5884ZM115.753 14.7858C118.129 17.0102 118.038 20.9585 118.038 20.9585C118.038 20.9585 114.092 21.304 111.716 19.0796C109.341 16.8551 109.431 12.9049 109.431 12.9049C109.431 12.9049 113.377 12.5613 115.753 14.7858Z" stroke="black" stroke-width="0.581565" stroke-linecap="round" stroke-linejoin="round"/>
</svg>
