<svg width="20" height="17" viewBox="0 0 20 17" fill="none" xmlns="http://www.w3.org/2000/svg">
<path d="M17.5833 3H2.58331C2.3844 3 2.19364 2.92098 2.05298 2.78033C1.91233 2.63968 1.83331 2.44891 1.83331 2.25C1.83331 2.05109 1.91233 1.86032 2.05298 1.71967C2.19364 1.57902 2.3844 1.5 2.58331 1.5H15.3333C15.5322 1.5 15.723 1.42098 15.8636 1.28033C16.0043 1.13968 16.0833 0.948912 16.0833 0.75C16.0833 0.551088 16.0043 0.360322 15.8636 0.21967C15.723 0.0790178 15.5322 0 15.3333 0H2.58331C1.98658 0 1.41428 0.237053 0.992323 0.65901C0.570366 1.08097 0.333313 1.65326 0.333313 2.25V14.25C0.333313 14.8467 0.570366 15.419 0.992323 15.841C1.41428 16.2629 1.98658 16.5 2.58331 16.5H17.5833C17.9811 16.5 18.3627 16.342 18.644 16.0607C18.9253 15.7794 19.0833 15.3978 19.0833 15V4.5C19.0833 4.10218 18.9253 3.72064 18.644 3.43934C18.3627 3.15804 17.9811 3 17.5833 3ZM17.5833 15H2.58331C2.3844 15 2.19364 14.921 2.05298 14.7803C1.91233 14.6397 1.83331 14.4489 1.83331 14.25V4.37156C2.07413 4.45693 2.32781 4.50037 2.58331 4.5H17.5833V15ZM13.0833 9.375C13.0833 9.1525 13.1493 8.93499 13.2729 8.74998C13.3965 8.56498 13.5722 8.42078 13.7778 8.33564C13.9834 8.25049 14.2096 8.22821 14.4278 8.27162C14.646 8.31502 14.8465 8.42217 15.0038 8.5795C15.1611 8.73684 15.2683 8.93729 15.3117 9.15552C15.3551 9.37375 15.3328 9.59995 15.2477 9.80552C15.1625 10.0111 15.0183 10.1868 14.8333 10.3104C14.6483 10.434 14.4308 10.5 14.2083 10.5C13.9099 10.5 13.6238 10.3815 13.4128 10.1705C13.2018 9.95952 13.0833 9.67337 13.0833 9.375Z" fill="black"/>
</svg>
